<svg xmlns="http://www.w3.org/2000/svg" xmlns:xlink="http://www.w3.org/1999/xlink" width="200" zoomAndPan="magnify" viewBox="0 0 150 149.999998" height="200" preserveAspectRatio="xMidYMid meet" version="1.0"><defs><g/><clipPath id="1c3992c5f3"><path d="M 26.0625 8.589844 L 116.0625 8.589844 L 116.0625 145 L 26.0625 145 Z M 26.0625 8.589844 " clip-rule="nonzero"/></clipPath></defs><g clip-path="url(#1c3992c5f3)"><path fill="#ffffff" d="M 40.800781 38.742188 C 40.742188 38.742188 40.742188 38.742188 40.683594 38.683594 C 40.625 38.625 40.625 38.570312 40.683594 38.511719 L 40.917969 38.277344 C 40.976562 38.21875 41.03125 38.21875 41.03125 38.335938 L 41.03125 38.625 C 41.03125 38.683594 41.089844 38.742188 41.148438 38.742188 C 42.078125 38.917969 43.0625 39.320312 43.988281 39.902344 C 44.046875 39.902344 44.046875 39.902344 44.105469 39.902344 C 44.105469 39.902344 44.105469 39.902344 44.105469 39.84375 L 44.046875 39.03125 C 44.046875 38.972656 44.046875 38.972656 44.105469 38.972656 C 44.105469 38.972656 44.164062 38.972656 44.164062 39.03125 L 44.222656 39.089844 C 44.28125 39.148438 44.28125 39.207031 44.28125 39.265625 C 44.339844 39.671875 44.28125 40.019531 44.570312 40.367188 C 45.035156 41.003906 45.613281 41.640625 45.84375 42.335938 C 46.019531 42.800781 46.195312 43.671875 46.019531 44.191406 C 46.019531 44.308594 45.902344 44.367188 45.84375 44.367188 L 45.265625 44.773438 C 45.148438 44.832031 45.09375 44.773438 45.148438 44.65625 C 45.554688 43.148438 44.859375 41.875 43.699219 40.945312 C 41.730469 39.324219 39.351562 40.367188 37.613281 41.640625 C 37.554688 41.699219 37.496094 41.699219 37.4375 41.699219 C 37.320312 41.699219 37.265625 41.582031 37.265625 41.527344 C 37.148438 40.714844 37.089844 39.902344 37.03125 39.089844 C 36.859375 37.175781 35.523438 35.554688 33.550781 35.496094 C 31.753906 35.4375 30.769531 37.117188 30.710938 38.742188 C 30.710938 38.917969 30.769531 39.03125 30.828125 39.207031 C 30.886719 39.320312 30.828125 39.320312 30.710938 39.320312 C 29.320312 39.089844 28.332031 39.671875 27.8125 41.003906 C 27.464844 41.875 27.347656 42.742188 27.523438 43.671875 C 27.695312 44.484375 28.277344 45.179688 29.203125 45.121094 C 29.4375 45.121094 29.609375 45.003906 29.667969 44.773438 C 30.132812 43.4375 31 42.453125 32.335938 41.929688 C 32.394531 41.929688 32.394531 41.929688 32.394531 41.988281 L 32.394531 42.046875 C 31.582031 42.511719 31 43.148438 30.710938 43.960938 C 30.1875 45.292969 30.480469 46.453125 31.523438 47.324219 C 32.046875 47.789062 33.203125 48.308594 33.957031 48.136719 C 34.480469 48.019531 34.945312 47.960938 35.464844 47.960938 C 35.523438 47.960938 35.582031 47.902344 35.582031 47.847656 C 35.582031 47.441406 35.757812 47.148438 36.046875 46.859375 C 36.105469 46.800781 36.105469 46.6875 36.046875 46.628906 C 35.929688 46.511719 35.929688 46.511719 35.871094 46.511719 C 35.464844 46.453125 35.117188 46.398438 34.769531 46.339844 C 34.597656 46.28125 34.480469 46.164062 34.421875 45.992188 C 34.304688 45.351562 34.25 44.714844 34.25 44.078125 C 34.25 44.019531 34.304688 43.960938 34.363281 43.960938 C 34.597656 43.902344 34.769531 43.902344 35.003906 43.902344 C 35.582031 43.902344 35.523438 43.148438 36.277344 43.265625 C 37.03125 43.382812 37.960938 44.773438 38.367188 45.410156 C 38.480469 45.585938 38.539062 45.816406 38.480469 45.992188 C 38.308594 46.859375 37.960938 47.613281 37.320312 48.195312 C 37.320312 48.195312 37.320312 48.253906 37.320312 48.253906 C 37.554688 48.367188 37.785156 48.484375 38.015625 48.65625 C 38.945312 49.527344 39.699219 50.457031 40.164062 51.5 C 40.222656 51.558594 40.222656 51.558594 40.277344 51.5 C 40.683594 50.28125 41.378906 49.527344 42.484375 49.121094 C 44.570312 48.367188 46.773438 50.222656 47.644531 52.019531 C 47.644531 52.078125 47.757812 52.078125 47.757812 52.078125 C 47.757812 52.078125 47.816406 52.078125 47.816406 52.019531 C 48.398438 50.976562 49.207031 50.398438 50.136719 49.703125 C 50.3125 49.585938 50.542969 49.46875 50.714844 49.410156 C 51.355469 49.296875 51.933594 49.0625 52.570312 49.0625 C 55.125 48.949219 57.5 50.164062 58.890625 52.425781 C 58.890625 52.484375 58.949219 52.484375 59.007812 52.484375 C 59.007812 52.484375 59.066406 52.484375 59.066406 52.425781 C 59.296875 51.789062 59.703125 51.210938 60.34375 50.746094 C 61.5 49.757812 62.894531 49.410156 64.515625 49.644531 C 64.632812 49.644531 64.691406 49.644531 64.75 49.527344 C 65.039062 48.542969 66.140625 48.195312 67.070312 48.367188 C 67.125 48.367188 67.125 48.425781 67.125 48.484375 C 67.125 48.542969 67.125 48.601562 67.070312 48.601562 C 65.5625 49.296875 65.269531 50.570312 65.734375 52.019531 C 66.488281 54.339844 68.925781 57.53125 71.824219 56.601562 C 72.636719 56.3125 73.214844 55.617188 73.214844 54.746094 C 73.214844 54.515625 73.214844 54.28125 73.214844 54.050781 C 73.214844 53.992188 73.214844 53.992188 73.273438 53.992188 C 73.273438 53.992188 73.273438 53.992188 73.332031 53.992188 C 73.445312 54.109375 73.5625 54.226562 73.679688 54.28125 C 74.144531 54.746094 74.898438 54.746094 75.476562 54.628906 C 75.882812 54.574219 76.230469 54.339844 76.578125 53.933594 C 77.390625 53.007812 77.738281 51.617188 77.042969 50.570312 C 76.519531 49.703125 75.765625 49.355469 74.953125 48.890625 C 74.898438 48.890625 74.898438 48.832031 74.953125 48.773438 C 74.953125 48.773438 74.953125 48.773438 75.011719 48.714844 C 77.15625 47.613281 78.144531 45.0625 76.808594 42.859375 C 75.648438 40.886719 73.214844 39.671875 71.128906 41.179688 C 71.070312 41.234375 71.011719 41.234375 71.011719 41.121094 C 70.433594 39.671875 69.679688 38.800781 67.996094 38.917969 C 67.070312 38.972656 66.140625 39.726562 65.792969 40.65625 C 65.445312 41.640625 65.445312 42.570312 65.792969 43.382812 C 65.851562 43.496094 65.792969 43.496094 65.734375 43.4375 C 65.097656 43.089844 64.632812 42.105469 64.632812 41.410156 C 64.632812 40.308594 64.921875 39.378906 65.617188 38.625 C 65.734375 38.511719 65.675781 38.453125 65.5625 38.394531 C 64.808594 37.929688 64.109375 37.523438 63.53125 37.292969 C 63.007812 37.0625 62.3125 36.945312 61.5 36.945312 C 61.386719 36.945312 61.386719 36.886719 61.445312 36.828125 C 61.792969 36.480469 62.660156 36.421875 63.125 36.421875 C 63.242188 36.421875 63.242188 36.363281 63.183594 36.308594 C 62.546875 35.785156 62.140625 34.453125 62.023438 33.699219 C 61.90625 33 62.023438 32.246094 62.140625 31.550781 C 62.140625 31.4375 62.082031 31.378906 61.964844 31.378906 C 61.792969 31.378906 61.675781 31.320312 61.675781 31.144531 C 61.675781 30.277344 61.675781 29.347656 61.734375 28.363281 C 61.734375 28.246094 61.675781 28.1875 61.617188 28.132812 C 61.328125 27.898438 61.097656 27.609375 60.921875 27.320312 C 60.457031 26.566406 60.050781 25.8125 59.644531 25.058594 C 58.71875 23.433594 57.328125 22.332031 55.296875 23.085938 C 55.238281 23.085938 55.238281 23.085938 55.179688 23.027344 C 54.078125 21.519531 52.339844 20.824219 50.484375 21.40625 C 49.441406 21.753906 48.339844 22.5625 48.105469 23.667969 C 47.875 24.710938 48.398438 25.753906 49.09375 26.507812 C 49.152344 26.566406 49.152344 26.625 49.09375 26.679688 C 48.050781 27.261719 46.019531 28.480469 46.019531 29.8125 C 46.019531 30.335938 46.078125 30.914062 46.25 31.4375 C 46.484375 32.191406 46.773438 32.945312 47.0625 33.699219 C 47.179688 33.929688 47.351562 34.046875 47.585938 34.105469 C 48.164062 34.105469 48.746094 34.046875 49.152344 33.8125 C 49.207031 33.753906 49.265625 33.8125 49.265625 33.871094 C 49.5 34.21875 49.730469 34.625 50.019531 34.972656 C 50.949219 36.074219 52.167969 36.539062 53.730469 36.363281 C 54.601562 36.25 55.414062 35.609375 55.414062 34.683594 C 55.414062 34.160156 55.355469 33.640625 55.179688 33.117188 C 55.125 33 55.179688 32.886719 55.296875 32.828125 C 55.703125 32.597656 56.109375 32.304688 56.339844 31.84375 C 56.515625 31.4375 56.457031 30.742188 56.457031 30.21875 C 56.457031 30.160156 56.457031 30.101562 56.515625 29.988281 C 56.632812 29.695312 56.863281 29.582031 57.09375 29.753906 C 57.328125 29.871094 57.558594 29.988281 57.734375 30.160156 C 58.601562 30.742188 59.703125 29.929688 60.398438 29.464844 C 60.457031 29.40625 60.515625 29.464844 60.574219 29.464844 C 60.574219 29.464844 60.574219 29.464844 60.574219 29.523438 C 60.632812 29.929688 60.632812 30.335938 60.515625 30.683594 C 60.398438 31.089844 59.644531 31.320312 59.296875 31.4375 C 59.125 31.496094 59.007812 31.609375 58.890625 31.785156 C 58.429688 32.539062 58.023438 33.292969 57.617188 34.046875 C 57.269531 34.742188 56.921875 35.4375 56.515625 36.132812 C 55.992188 37.003906 57.5 38.335938 58.136719 38.800781 C 58.3125 38.917969 58.488281 39.03125 58.601562 39.148438 C 58.71875 39.207031 58.660156 39.265625 58.542969 39.207031 C 58.253906 39.148438 57.964844 38.972656 57.675781 38.917969 C 56.632812 38.683594 55.585938 38.742188 54.601562 39.265625 C 53.730469 39.671875 54.136719 40.714844 54.601562 41.292969 C 54.660156 41.410156 54.660156 41.410156 54.542969 41.351562 C 54.023438 41.121094 53.558594 40.886719 53.035156 40.828125 C 51.121094 40.539062 49.730469 41.527344 49.265625 43.324219 C 48.976562 44.367188 49.265625 45.46875 49.789062 46.453125 C 50.136719 47.09375 49.960938 47.902344 49.09375 47.960938 C 48.6875 47.960938 48.453125 47.847656 48.28125 47.613281 C 48.105469 47.324219 48.105469 46.976562 48.050781 46.628906 C 48.050781 46.628906 48.050781 46.570312 47.992188 46.570312 C 47.992188 46.570312 47.992188 46.570312 47.933594 46.570312 C 47.933594 46.570312 47.875 46.570312 47.875 46.628906 C 47.875 46.917969 47.816406 47.207031 47.816406 47.441406 C 47.757812 47.730469 47.644531 47.789062 47.351562 47.671875 C 47.0625 47.5 46.714844 47.265625 46.308594 46.976562 C 46.195312 46.859375 46.136719 46.746094 46.195312 46.570312 C 46.195312 46.511719 46.195312 46.453125 46.136719 46.453125 C 45.960938 46.453125 45.789062 46.398438 45.554688 46.28125 C 45.441406 46.222656 45.441406 46.105469 45.496094 46.046875 C 45.496094 45.992188 45.554688 45.992188 45.554688 45.992188 C 45.789062 45.875 46.019531 45.875 46.25 46.046875 C 46.367188 46.105469 46.367188 46.222656 46.367188 46.339844 C 46.367188 46.453125 46.367188 46.453125 46.484375 46.511719 L 47.238281 46.570312 C 47.296875 46.570312 47.351562 46.570312 47.410156 46.453125 L 47.46875 46.339844 C 47.527344 46.222656 47.703125 46.164062 47.875 46.222656 C 47.875 46.222656 47.933594 46.222656 47.933594 46.28125 C 48.222656 46.511719 48.628906 46.570312 49.035156 46.398438 C 49.09375 46.398438 49.152344 46.339844 49.09375 46.28125 C 48.917969 45.46875 47.585938 44.945312 46.890625 44.714844 C 46.773438 44.65625 46.714844 44.539062 46.714844 44.425781 C 46.773438 43.84375 46.773438 43.265625 46.597656 42.628906 C 46.597656 42.570312 46.597656 42.511719 46.714844 42.511719 C 46.949219 42.453125 47.179688 42.453125 47.410156 42.394531 C 48.511719 42.164062 49.441406 41.351562 50.253906 40.597656 C 51.007812 39.960938 51.414062 39.265625 51.585938 38.453125 C 51.644531 38.164062 51.527344 37.988281 51.355469 37.816406 C 50.484375 37.117188 49.558594 36.597656 48.917969 35.609375 C 48.917969 35.554688 48.859375 35.554688 48.804688 35.554688 C 48.628906 35.496094 48.570312 35.609375 48.628906 35.785156 C 48.746094 36.074219 48.859375 36.308594 48.976562 36.480469 C 49.152344 36.65625 49.09375 36.714844 48.859375 36.597656 C 47.757812 36.132812 46.542969 35.902344 45.324219 35.726562 C 45.265625 35.726562 45.207031 35.667969 45.207031 35.609375 C 45.265625 35.207031 45.382812 34.800781 45.554688 34.453125 C 45.671875 34.21875 45.613281 34.046875 45.496094 33.8125 C 44.511719 32.480469 43.410156 31.609375 44.222656 29.753906 C 44.28125 29.636719 44.28125 29.582031 44.222656 29.464844 C 43.46875 27.261719 41.730469 25.984375 39.351562 26.042969 C 38.074219 26.101562 36.683594 26.738281 36.21875 27.957031 C 36.105469 28.304688 36.105469 28.652344 36.105469 29 C 36.105469 29.117188 36.046875 29.117188 35.988281 29.117188 C 34.828125 29 33.957031 29.347656 33.4375 30.507812 C 32.855469 31.785156 33.03125 32.828125 33.378906 34.105469 C 33.4375 34.21875 33.320312 34.394531 33.203125 34.394531 C 33.203125 34.394531 33.203125 34.394531 33.148438 34.394531 C 32.914062 34.394531 32.683594 34.277344 32.566406 34.046875 C 31.347656 31.726562 31.40625 28.710938 34.828125 28.480469 C 34.945312 28.480469 35.003906 28.421875 35.003906 28.246094 C 34.945312 25.40625 38.074219 24.417969 40.335938 25.117188 C 42.25 25.695312 43.585938 26.855469 44.453125 28.652344 C 44.511719 28.710938 44.511719 28.710938 44.570312 28.652344 C 45.148438 27.433594 46.019531 26.566406 47.238281 26.042969 C 47.351562 25.984375 47.351562 25.925781 47.296875 25.871094 C 46.484375 24.304688 46.308594 22.796875 47.816406 21.636719 C 50.195312 19.78125 53.441406 19.722656 55.472656 21.984375 C 55.585938 22.101562 55.761719 22.160156 55.878906 22.042969 C 56.398438 21.808594 56.863281 21.578125 57.441406 21.519531 C 57.441406 21.519531 57.5 21.519531 57.5 21.460938 C 56.167969 20.070312 56.339844 17.695312 57.09375 16.070312 C 57.90625 14.332031 59.242188 13.402344 61.152344 13.285156 C 61.964844 13.230469 62.835938 13.460938 63.472656 14.039062 C 63.53125 14.039062 63.53125 14.039062 63.589844 14.039062 C 64.226562 12.589844 65.269531 11.664062 66.835938 11.375 C 68.632812 11.023438 70.835938 11.664062 71.476562 13.519531 C 71.589844 13.925781 71.648438 13.867188 71.707031 13.519531 C 71.824219 12.125 72.578125 11.023438 73.910156 10.328125 C 75.1875 9.632812 76.519531 9.515625 77.96875 10.039062 C 78.085938 10.097656 78.144531 10.039062 78.203125 9.921875 C 78.433594 9.226562 78.898438 8.820312 79.710938 8.765625 C 81.621094 8.589844 83.828125 9.921875 84.929688 11.375 C 85.449219 12.070312 85.738281 12.9375 85.390625 13.75 C 85.390625 13.808594 85.390625 13.867188 85.449219 13.867188 C 87.480469 14.503906 88.695312 15.78125 89.101562 17.695312 C 89.101562 17.808594 89.160156 17.808594 89.21875 17.695312 C 90.261719 15.488281 92.8125 14.734375 94.84375 16.128906 C 94.902344 16.1875 94.960938 16.128906 94.960938 16.070312 C 95.773438 14.679688 97.511719 14.386719 98.902344 14.910156 C 100.0625 15.316406 100.988281 16.070312 101.742188 17.113281 C 102.496094 18.214844 102.902344 19.953125 102.09375 21.113281 C 102.035156 21.171875 102.035156 21.289062 102.148438 21.347656 C 104.179688 22.273438 104.933594 24.535156 104.585938 26.679688 C 104.585938 26.738281 104.644531 26.796875 104.703125 26.855469 C 106.324219 27.203125 109.28125 29.058594 107.890625 31.144531 C 107.890625 31.203125 107.890625 31.203125 107.890625 31.261719 C 109.398438 31.785156 111.136719 33.117188 110.90625 34.914062 C 110.789062 35.902344 110.382812 36.539062 109.6875 36.945312 C 109.628906 37.003906 109.570312 37.0625 109.628906 37.117188 C 111.023438 38.742188 110.035156 41.179688 108.761719 42.511719 C 108.761719 42.511719 108.761719 42.570312 108.761719 42.628906 C 110.675781 43.902344 111.660156 45.699219 111.601562 48.019531 C 111.601562 48.078125 111.660156 48.136719 111.71875 48.136719 C 114.5 48.308594 115.777344 51.210938 116.007812 53.585938 C 116.066406 54.109375 116.007812 54.804688 115.890625 55.730469 C 113.167969 73.882812 110.5 91.507812 107.949219 108.671875 C 106.558594 118.125 105.164062 127.691406 103.714844 137.261719 C 103.714844 137.320312 103.65625 137.375 103.597656 137.375 L 85.21875 144.914062 C 85.160156 144.914062 85.101562 144.972656 85.042969 144.914062 L 42.191406 138.128906 C 42.132812 138.128906 42.078125 138.070312 42.078125 138.015625 C 41.378906 133.605469 40.683594 129.140625 40.046875 124.621094 C 39.875 123.460938 39.699219 122.300781 39.523438 121.140625 C 36.046875 98.582031 32.625 76.085938 29.261719 53.527344 C 29.203125 53.179688 29.203125 52.832031 29.261719 52.601562 C 29.667969 51.210938 30.421875 50.050781 31.464844 49.238281 C 31.523438 49.179688 31.523438 49.121094 31.464844 49.121094 C 30.480469 48.484375 29.839844 47.554688 29.550781 46.28125 C 29.492188 46.164062 29.4375 46.046875 29.261719 46.046875 C 28.277344 45.933594 27.347656 45.527344 26.828125 44.65625 C 26.246094 43.730469 26.074219 42.628906 26.363281 41.351562 C 26.769531 39.4375 28.449219 38.570312 30.304688 38.972656 C 30.363281 38.972656 30.363281 38.972656 30.363281 38.917969 C 30.246094 38.105469 30.421875 37.175781 30.710938 36.480469 C 31.40625 34.914062 32.683594 34.277344 34.480469 34.566406 C 34.886719 34.625 35.234375 34.742188 35.582031 34.914062 C 35.988281 35.089844 36.453125 35.207031 36.914062 35.261719 C 37.03125 35.261719 37.03125 35.320312 36.972656 35.378906 C 36.859375 35.496094 36.742188 35.609375 36.566406 35.667969 C 36.511719 35.667969 36.453125 35.785156 36.511719 35.84375 C 36.511719 35.84375 36.511719 35.84375 36.511719 35.902344 C 37.667969 37.117188 37.785156 38.625 37.613281 40.308594 C 37.613281 40.425781 37.613281 40.425781 37.726562 40.425781 C 37.84375 40.425781 37.902344 40.367188 37.902344 40.25 C 38.25 39.496094 38.828125 38.859375 39.640625 38.683594 C 40.105469 38.625 40.105469 38.683594 39.757812 38.972656 C 39.640625 39.089844 39.46875 39.207031 39.351562 39.324219 C 39.121094 39.613281 39.121094 39.671875 39.523438 39.554688 C 39.929688 39.4375 40.335938 39.265625 40.742188 39.089844 C 40.917969 38.800781 40.917969 38.742188 40.800781 38.742188 Z M 82.320312 15.140625 C 82.144531 15.199219 82.085938 15.140625 82.261719 15.027344 C 82.839844 14.503906 83.304688 13.925781 83.710938 13.34375 C 84.058594 12.878906 84.058594 12.417969 83.769531 11.953125 C 83.015625 10.792969 81.972656 10.097656 80.519531 9.921875 C 80 9.867188 79.476562 9.980469 79.070312 10.386719 C 79.011719 10.445312 79.011719 10.503906 79.070312 10.503906 C 80.171875 11.488281 80.867188 13.113281 80.117188 14.445312 C 79.882812 14.792969 79.824219 14.792969 79.941406 14.386719 C 80.40625 12.476562 78.898438 10.792969 77.042969 10.675781 C 75.417969 10.621094 74.085938 11.199219 73.097656 12.53125 C 72.75 12.996094 72.578125 13.578125 72.519531 14.15625 C 72.519531 14.679688 72.925781 15.199219 73.097656 15.722656 C 73.15625 15.839844 73.15625 15.894531 73.15625 16.011719 C 73.15625 16.070312 73.097656 16.070312 73.097656 16.070312 C 73.097656 16.070312 73.042969 16.070312 73.042969 16.011719 C 72.636719 15.433594 72.113281 14.96875 71.476562 14.621094 C 71.183594 14.445312 70.835938 14.445312 70.488281 14.273438 C 70.433594 14.273438 70.375 14.214844 70.375 14.15625 C 69.96875 12.824219 68.632812 12.070312 67.242188 12.125 C 65.910156 12.183594 64.921875 12.824219 64.34375 14.097656 C 64.167969 14.503906 64.109375 14.96875 63.996094 15.375 C 63.996094 15.488281 63.9375 15.488281 63.878906 15.433594 C 62.660156 14.445312 60.980469 14.039062 59.472656 14.679688 C 57.269531 15.664062 56.457031 18.097656 57.964844 20.070312 C 58.835938 21.230469 59.878906 21.578125 61.210938 22.101562 C 61.328125 22.160156 61.328125 22.214844 61.328125 22.332031 C 61.328125 22.332031 61.328125 22.332031 61.328125 22.390625 C 60.863281 23.144531 61.269531 24.246094 61.5 25.058594 C 61.558594 25.230469 61.617188 25.230469 61.675781 25.058594 C 62.023438 24.417969 62.488281 23.957031 63.125 23.78125 C 64.808594 23.203125 66.371094 23.375 67.707031 24.304688 C 67.765625 24.363281 67.824219 24.363281 67.878906 24.304688 C 68.226562 23.957031 68.402344 23.609375 68.402344 23.375 C 68.460938 23.027344 68.460938 22.679688 68.519531 22.332031 C 68.574219 22.160156 68.632812 22.160156 68.691406 22.273438 C 68.980469 22.738281 69.386719 23.027344 70.027344 23.144531 C 70.664062 23.261719 71.300781 23.316406 71.882812 23.375 C 71.9375 23.375 71.996094 23.316406 71.996094 23.261719 C 72.113281 22.621094 72.519531 22.273438 73.15625 22.214844 C 73.792969 22.101562 74.375 21.867188 74.839844 21.460938 C 74.898438 21.460938 74.898438 21.460938 74.953125 21.460938 C 74.953125 21.460938 74.953125 21.460938 74.953125 21.519531 C 74.953125 21.578125 74.953125 21.636719 74.953125 21.636719 C 74.433594 22.738281 74.492188 23.722656 75.011719 24.824219 C 76 26.738281 77.855469 28.652344 80.171875 28.480469 C 81.796875 28.304688 83.015625 27.550781 83.769531 26.101562 C 83.828125 26.042969 83.882812 26.042969 83.941406 26.042969 C 83.941406 26.042969 83.941406 26.042969 84 26.042969 C 84.40625 26.507812 84.929688 26.738281 85.566406 26.738281 C 86.667969 26.738281 87.480469 26.160156 88 25.171875 C 88.582031 24.015625 88.40625 22.273438 87.246094 21.519531 C 87.015625 21.347656 86.785156 21.230469 86.550781 21.171875 C 86.492188 21.113281 86.4375 21.113281 86.492188 21.058594 C 88.292969 19.027344 87.945312 16.300781 85.335938 15.316406 C 84.40625 14.792969 83.363281 14.910156 82.320312 15.140625 Z M 90.902344 23.027344 C 90.4375 22.96875 89.742188 22.449219 89.449219 22.101562 C 89.101562 21.753906 89.046875 21.808594 89.277344 22.214844 C 89.625 22.914062 89.683594 23.839844 89.394531 24.941406 C 89.394531 25 89.394531 25.058594 89.449219 25 C 91.015625 24.246094 92.699219 24.128906 93.800781 25.578125 C 94.554688 26.566406 94.84375 27.492188 94.726562 28.710938 C 94.726562 28.828125 94.726562 28.886719 94.785156 28.941406 C 95.019531 29.347656 95.367188 29.582031 95.828125 29.753906 C 95.945312 29.8125 96.003906 29.753906 96.121094 29.695312 C 97.164062 28.710938 98.382812 28.59375 99.773438 29.347656 C 100.003906 29.464844 100.179688 29.582031 100.410156 29.753906 C 100.527344 29.8125 100.527344 29.8125 100.527344 29.695312 C 100.292969 29 100.351562 28.304688 100.757812 27.550781 C 101.164062 26.796875 101.859375 26.625 102.671875 26.449219 C 102.960938 26.390625 103.136719 26.21875 103.25 25.925781 C 103.542969 25.058594 103.25 24.1875 102.730469 23.433594 C 101.976562 22.390625 100.992188 21.925781 99.714844 21.984375 C 99.65625 21.984375 99.597656 21.925781 99.597656 21.867188 C 99.597656 21.867188 99.597656 21.808594 99.597656 21.808594 C 99.832031 21.40625 100.121094 21 100.410156 20.59375 C 101.859375 18.851562 101.046875 16.070312 98.730469 15.605469 C 97.511719 15.375 96.410156 15.605469 95.480469 16.359375 C 95.421875 16.417969 95.421875 16.476562 95.480469 16.535156 C 95.886719 17.113281 96.234375 17.75 96.234375 18.449219 C 96.234375 18.738281 96.175781 18.738281 96.0625 18.503906 C 94.902344 15.839844 91.539062 15.546875 89.914062 17.984375 C 88.753906 19.722656 89.449219 21.578125 90.902344 22.796875 C 91.074219 22.96875 91.074219 23.027344 90.902344 23.027344 Z M 68.171875 25.578125 C 67.9375 25.171875 67.589844 24.882812 67.125 24.710938 C 65.328125 24.070312 63.007812 24.535156 62.660156 26.679688 C 62.546875 27.609375 62.660156 28.363281 63.125 28.941406 C 63.472656 29.40625 63.9375 29.753906 64.34375 30.101562 C 64.574219 30.277344 64.515625 30.390625 64.226562 30.390625 C 63.355469 30.507812 62.71875 31.4375 62.605469 32.191406 C 62.429688 33.40625 62.894531 34.800781 63.648438 35.726562 C 64.75 37.117188 66.199219 37.757812 68.054688 37.699219 C 69.851562 37.640625 71.359375 36.539062 72.289062 34.972656 C 72.289062 34.914062 72.34375 34.914062 72.402344 34.914062 C 72.636719 34.914062 72.808594 35.03125 73.042969 35.03125 C 74.199219 35.089844 75.128906 34.800781 75.824219 34.160156 C 77.332031 32.769531 77.796875 30.683594 77.507812 28.652344 C 77.507812 28.535156 77.449219 28.421875 77.332031 28.363281 C 76.113281 27.78125 75.1875 26.796875 74.546875 25.636719 C 74.199219 25.058594 73.738281 24.59375 73.097656 24.304688 C 71.242188 23.492188 69.5625 23.957031 68.34375 25.464844 C 68.34375 25.636719 68.285156 25.636719 68.171875 25.578125 C 68.226562 25.636719 68.171875 25.578125 68.171875 25.578125 Z M 78.78125 36.191406 C 77.390625 35.726562 76.347656 37.410156 76.171875 38.570312 C 76.054688 39.613281 76.347656 40.480469 76.925781 41.292969 C 77.449219 42.046875 77.621094 42.628906 77.796875 43.496094 C 77.855469 43.84375 77.910156 43.84375 77.96875 43.496094 C 78.027344 42.976562 77.96875 42.453125 77.796875 41.929688 C 77.738281 41.816406 77.796875 41.816406 77.910156 41.875 C 79.1875 42.570312 80.8125 43.035156 81.679688 41.410156 C 81.738281 41.351562 81.679688 41.292969 81.621094 41.351562 C 81.160156 41.640625 80.40625 41.929688 79.941406 41.46875 C 79.070312 40.597656 80.636719 40.019531 81.273438 40.074219 C 81.332031 40.074219 81.332031 40.074219 81.390625 40.132812 C 81.679688 40.425781 81.796875 40.773438 81.738281 41.179688 C 81.738281 41.234375 81.738281 41.234375 81.796875 41.234375 C 81.972656 41.121094 82.203125 41.0625 82.433594 41.003906 C 82.492188 41.003906 82.550781 41.003906 82.433594 41.0625 C 82.027344 41.351562 81.679688 41.757812 81.449219 42.28125 C 81.21875 42.742188 81.160156 44.019531 81.507812 44.484375 C 82.085938 45.179688 82.78125 45.527344 83.535156 45.585938 C 85.101562 45.585938 86.667969 44.25 85.914062 42.570312 C 85.796875 42.28125 85.683594 42.046875 85.566406 41.816406 C 85.507812 41.699219 85.566406 41.699219 85.625 41.757812 C 86.550781 42.164062 87.421875 41.988281 88.175781 41.179688 C 89.046875 40.308594 89.566406 39.324219 89.507812 38.046875 C 89.507812 37.757812 89.335938 37.582031 89.21875 37.351562 C 89.160156 37.292969 89.160156 37.234375 89.21875 37.175781 C 89.394531 36.886719 89.566406 36.65625 89.742188 36.363281 C 89.855469 36.191406 89.914062 36.015625 89.855469 35.84375 C 89.742188 35.089844 89.855469 34.394531 90.203125 33.699219 C 90.261719 33.582031 90.261719 33.582031 90.320312 33.699219 C 90.320312 35.03125 90.609375 36.074219 91.886719 36.769531 C 92.117188 36.886719 92.292969 36.886719 92.523438 36.828125 C 93.21875 36.539062 93.914062 36.191406 94.613281 35.84375 C 94.902344 35.667969 95.25 35.378906 95.367188 35.089844 C 95.714844 34.105469 95.714844 32.769531 94.785156 32.074219 C 94.089844 31.550781 93.453125 31.378906 92.8125 31.496094 C 92.699219 31.496094 92.699219 31.496094 92.757812 31.378906 C 93.742188 30.449219 94.148438 29.40625 94.03125 28.1875 C 93.859375 26.679688 92.757812 25.117188 91.015625 25.40625 C 90.261719 25.523438 89.625 25.753906 89.21875 26.042969 C 88.464844 26.625 87.652344 27.144531 86.839844 27.726562 C 86.492188 27.957031 86.492188 28.59375 86.4375 28.941406 C 86.4375 29 86.378906 29.058594 86.320312 29.058594 C 86.320312 29.058594 86.320312 29.058594 86.261719 29.058594 C 85.738281 28.769531 85.277344 28.535156 84.636719 28.363281 C 84.175781 28.246094 83.710938 28.074219 83.304688 27.839844 C 83.1875 27.78125 83.015625 27.78125 82.898438 27.898438 C 82.085938 28.59375 81.101562 29.058594 80 29.289062 C 79.652344 29.347656 79.363281 29.464844 79.070312 29.582031 C 79.011719 29.582031 78.957031 29.636719 78.957031 29.695312 C 78.550781 30.742188 78.839844 31.550781 79.824219 32.015625 C 80 32.132812 80.230469 32.132812 80.40625 32.074219 C 81.972656 31.550781 83.535156 31.378906 84.984375 32.304688 C 85.625 32.652344 86.203125 33.058594 86.898438 33.351562 C 87.710938 33.753906 88.058594 34.277344 88.117188 35.148438 C 88.117188 35.207031 88.058594 35.261719 88 35.320312 C 87.886719 35.320312 87.769531 35.378906 87.710938 35.4375 C 87.652344 35.496094 87.59375 35.496094 87.539062 35.496094 L 85.738281 35.261719 C 85.683594 35.261719 85.625 35.207031 85.625 35.148438 C 85.625 34.972656 85.566406 34.742188 85.507812 34.566406 C 84.695312 32.363281 83.015625 32.074219 80.925781 32.421875 C 80.230469 32.539062 79.652344 32.828125 79.1875 33.292969 C 78.433594 33.988281 77.855469 34.742188 78.492188 35.726562 C 78.609375 35.902344 78.664062 36.074219 78.78125 36.191406 C 78.898438 36.191406 78.898438 36.25 78.78125 36.191406 Z M 101.222656 30.566406 C 100.640625 30.277344 99.945312 30.042969 99.078125 30.042969 C 98.324219 29.988281 97.628906 30.160156 97.046875 30.566406 C 96.175781 31.203125 96.523438 32.132812 96.699219 32.945312 C 96.875 33.753906 96.816406 34.566406 96.46875 35.378906 C 96.410156 35.4375 96.46875 35.554688 96.582031 35.609375 C 96.582031 35.609375 96.640625 35.609375 96.640625 35.609375 L 97.335938 35.609375 C 97.394531 35.609375 97.453125 35.609375 97.511719 35.667969 C 97.683594 35.785156 97.859375 35.902344 98.03125 36.015625 C 98.496094 36.363281 99.132812 36.539062 99.65625 36.769531 C 100.121094 36.945312 100.46875 37.292969 100.816406 37.640625 C 101.222656 37.988281 101.742188 37.871094 102.148438 37.523438 C 102.613281 37.0625 102.265625 36.539062 101.917969 36.132812 C 101.859375 36.074219 101.859375 36.015625 101.917969 36.015625 C 102.207031 35.785156 102.730469 35.378906 103.136719 35.554688 C 103.65625 35.785156 104.703125 36.480469 104.816406 37.117188 C 104.933594 38.164062 104.703125 38.972656 104.003906 39.554688 C 103.949219 39.613281 103.949219 39.671875 104.003906 39.726562 C 104.296875 40.074219 104.527344 40.539062 104.703125 41.003906 C 104.933594 41.582031 104.933594 42.164062 104.992188 42.800781 C 104.992188 42.859375 105.050781 42.917969 105.105469 42.917969 C 107.019531 42.511719 108.703125 41.0625 108.992188 39.03125 C 109.109375 38.105469 108.761719 37.410156 107.890625 36.886719 C 107.832031 36.886719 107.832031 36.769531 107.832031 36.769531 C 107.832031 36.769531 107.890625 36.714844 107.890625 36.714844 C 109.28125 36.191406 110.324219 34.800781 109.339844 33.351562 C 108.644531 32.304688 107.542969 31.785156 106.324219 31.496094 C 106.265625 31.496094 106.207031 31.4375 106.207031 31.320312 C 106.207031 31.320312 106.207031 31.261719 106.265625 31.261719 C 106.847656 30.625 107.253906 29.871094 106.671875 29.058594 C 105.917969 28.074219 104.527344 27.726562 103.308594 27.78125 C 101.570312 27.898438 101.394531 29.058594 101.339844 30.449219 C 101.339844 30.625 101.28125 30.625 101.222656 30.566406 Z M 77.679688 35.378906 C 77.679688 35.320312 77.507812 35.261719 77.273438 35.320312 C 77.101562 35.378906 76.925781 35.496094 76.984375 35.554688 C 76.984375 35.609375 77.15625 35.667969 77.390625 35.609375 C 77.5625 35.554688 77.679688 35.4375 77.679688 35.378906 Z M 94.207031 49.355469 C 94.378906 50.863281 95.132812 51.730469 96.523438 51.964844 C 98.902344 52.3125 101.046875 50.164062 101.511719 47.960938 C 101.570312 47.730469 101.628906 47.730469 101.742188 47.902344 C 101.859375 48.078125 101.976562 48.195312 102.09375 48.308594 C 102.148438 48.367188 102.207031 48.367188 102.265625 48.367188 C 103.078125 48.367188 104.003906 47.613281 104.296875 46.859375 C 104.644531 45.933594 104.46875 45.121094 103.773438 44.484375 C 103.542969 44.25 103.195312 44.078125 102.789062 44.078125 C 102.730469 44.078125 102.730469 44.019531 102.730469 44.019531 C 102.730469 44.019531 102.730469 44.019531 102.730469 43.960938 C 104.003906 41.875 102.324219 39.726562 100.410156 38.859375 C 99.539062 38.453125 98.324219 38.625 97.335938 38.683594 C 97.277344 38.683594 97.222656 38.625 97.222656 38.625 C 97.277344 37.871094 97.046875 37.234375 96.410156 36.714844 C 96.003906 36.363281 95.367188 36.308594 94.902344 36.539062 C 93.566406 37.117188 92.582031 38.164062 92.058594 39.554688 C 91.710938 40.480469 91.828125 41.410156 92.351562 42.28125 C 92.410156 42.335938 92.351562 42.453125 92.292969 42.511719 C 92.292969 42.511719 92.234375 42.511719 92.234375 42.511719 C 90.902344 42.570312 89.972656 43.148438 89.335938 44.191406 C 88.582031 45.46875 89.046875 47.207031 89.800781 48.425781 C 90.726562 49.875 92.640625 50.050781 94.03125 49.296875 C 94.148438 49.238281 94.207031 49.238281 94.207031 49.355469 Z M 91.480469 40.308594 C 91.539062 39.671875 91.65625 39.089844 91.828125 38.453125 C 91.886719 38.335938 91.828125 38.21875 91.65625 38.164062 L 91.597656 38.164062 C 91.480469 38.105469 91.421875 38.164062 91.421875 38.335938 C 91.480469 38.972656 91.480469 39.613281 91.480469 40.308594 Z M 105.570312 43.84375 C 107.601562 45.933594 106.558594 48.601562 104.757812 50.398438 C 104.703125 50.457031 104.703125 50.457031 104.757812 50.511719 C 104.757812 50.511719 104.757812 50.511719 104.816406 50.511719 C 105.746094 50.746094 106.207031 51.324219 106.671875 52.078125 C 106.671875 52.078125 106.730469 52.136719 106.730469 52.078125 C 106.730469 52.078125 106.730469 52.078125 106.730469 52.019531 C 107.253906 50.222656 108.414062 48.890625 110.035156 48.019531 C 110.152344 47.960938 110.210938 47.902344 110.269531 47.847656 C 110.324219 47.789062 110.324219 47.671875 110.324219 47.613281 C 110.324219 46.453125 110.035156 45.410156 109.339844 44.597656 C 108.355469 43.382812 107.078125 43.089844 105.570312 43.730469 C 105.570312 43.789062 105.511719 43.84375 105.570312 43.84375 Z M 84.175781 50.398438 C 85.855469 50.863281 87.132812 51.964844 87.945312 53.527344 C 88 53.585938 88 53.585938 88.058594 53.527344 C 88.464844 53.066406 88.871094 52.601562 89.394531 52.195312 C 89.742188 51.90625 90.554688 50.917969 90.03125 50.457031 C 88.871094 49.410156 88.464844 48.308594 88 46.859375 C 87.945312 46.746094 87.886719 46.6875 87.769531 46.6875 C 87.015625 46.570312 86.144531 46.398438 85.277344 46.164062 C 85.101562 46.105469 84.929688 46.105469 84.753906 46.164062 C 83.710938 46.339844 82.78125 46.628906 81.972656 45.816406 C 81.738281 45.585938 81.390625 45.0625 80.984375 45.121094 C 80.464844 45.179688 80 45.292969 79.652344 45.585938 C 78.027344 46.800781 79.304688 48.601562 80.578125 49.296875 C 81.042969 49.527344 81.449219 49.757812 81.855469 49.992188 C 82.027344 50.109375 82.027344 50.164062 81.796875 50.164062 C 80.8125 50.28125 79.246094 50.863281 78.609375 51.671875 C 78.550781 51.730469 78.550781 51.789062 78.550781 51.847656 C 78.492188 53.414062 77.796875 54.6875 76.289062 55.328125 C 76.230469 55.328125 76.171875 55.382812 76.171875 55.5 C 75.476562 82.871094 74.546875 110.472656 73.738281 137.78125 C 73.679688 138.882812 73.679688 140.042969 73.679688 141.320312 C 73.679688 141.378906 73.679688 141.378906 73.738281 141.433594 L 77.621094 142.132812 C 77.679688 142.132812 77.738281 142.132812 77.738281 142.074219 L 84.058594 50.570312 C 84.058594 50.398438 84.117188 50.398438 84.175781 50.398438 Z M 41.03125 57.355469 C 43.585938 84.839844 46.078125 111.398438 48.453125 136.96875 C 48.453125 137.027344 48.453125 137.027344 48.511719 137.027344 L 51.933594 137.550781 C 51.992188 137.550781 52.050781 137.492188 52.050781 137.433594 C 51.527344 128.503906 51.007812 118.996094 50.484375 108.964844 C 50.425781 107.804688 50.367188 106.644531 50.3125 105.484375 C 49.324219 88.144531 48.398438 70.867188 47.46875 53.644531 C 47.410156 53.007812 47.351562 52.71875 47.003906 52.253906 C 46.425781 51.265625 45.730469 50.398438 44.6875 49.933594 C 42.773438 49.0625 41.207031 50.976562 40.683594 52.601562 C 40.625 52.71875 40.625 52.832031 40.625 52.949219 C 40.742188 54.398438 40.917969 55.847656 41.03125 57.355469 Z M 66.835938 56.136719 C 65.5625 54.628906 64.285156 52.484375 64.402344 50.511719 C 64.402344 50.457031 64.34375 50.398438 64.285156 50.398438 C 63.414062 50.339844 62.71875 50.398438 62.140625 50.628906 C 60.980469 51.09375 60.109375 51.90625 59.414062 53.179688 C 59.296875 53.414062 59.242188 53.703125 59.242188 54.050781 C 59.242188 55.035156 59.242188 55.964844 59.242188 56.949219 C 59.589844 84.839844 59.878906 112.152344 60.167969 139 C 60.167969 139.117188 60.226562 139.175781 60.34375 139.175781 L 64.808594 139.871094 C 64.863281 139.871094 64.863281 139.871094 64.863281 139.8125 C 64.980469 134.882812 65.097656 130.070312 65.269531 125.429688 C 65.792969 105.890625 66.257812 86.289062 66.777344 66.75 C 66.835938 63.675781 66.953125 60.253906 67.011719 56.429688 C 66.953125 56.3125 66.953125 56.195312 66.835938 56.136719 Z M 93.742188 50.511719 C 93.742188 50.398438 93.683594 50.398438 93.566406 50.398438 L 92.464844 50.570312 C 92.292969 50.570312 92.292969 50.628906 92.464844 50.6875 C 92.8125 50.863281 93.21875 50.917969 93.683594 50.976562 C 93.800781 50.976562 93.859375 50.917969 93.800781 50.804688 Z M 89.101562 54.226562 C 88.929688 54.628906 88.8125 54.976562 88.8125 55.328125 C 88.347656 62.804688 87.945312 70.285156 87.59375 77.765625 C 87.539062 78.925781 87.480469 80.085938 87.421875 81.246094 C 86.261719 101.773438 85.21875 121.605469 84.175781 140.738281 C 84.117188 141.320312 84.117188 141.957031 84.117188 142.539062 C 84.117188 142.59375 84.117188 142.59375 84.175781 142.59375 L 86.550781 141.785156 C 86.667969 141.726562 86.726562 141.667969 86.726562 141.550781 C 88 124.15625 89.335938 106.355469 90.667969 88.261719 C 91.539062 76.722656 92.292969 66.226562 92.929688 56.71875 C 92.988281 55.675781 93.046875 54.863281 92.988281 54.339844 C 92.929688 53.644531 92.699219 52.890625 92.292969 52.078125 C 91.945312 51.382812 91.074219 51.152344 90.554688 51.789062 C 90.03125 52.484375 89.566406 53.238281 89.101562 54.226562 Z M 93.046875 139.289062 L 96.757812 137.898438 C 96.875 137.839844 96.929688 137.722656 96.988281 137.609375 C 100.179688 110.355469 103.195312 83.042969 106.207031 55.210938 C 106.265625 54.6875 106.265625 54.226562 106.207031 53.933594 C 106.035156 53.007812 105.457031 51.964844 104.527344 51.671875 C 103.367188 51.265625 102.441406 52.136719 101.859375 53.066406 C 101.6875 53.296875 101.628906 53.644531 101.570312 54.167969 C 100.640625 63.15625 99.832031 71.792969 99.019531 80.144531 C 98.902344 81.363281 98.785156 82.523438 98.671875 83.625 C 96.757812 102.238281 94.84375 120.734375 92.929688 139.230469 C 92.929688 139.230469 92.929688 139.289062 93.046875 139.289062 C 92.988281 139.289062 92.988281 139.289062 93.046875 139.289062 Z M 93.046875 139.289062 " fill-opacity="1" fill-rule="nonzero"/></g><path fill="#ffffff" d="M 69.5625 19.375 C 69.5625 19.492188 69.5625 19.605469 69.503906 19.664062 C 69.445312 19.722656 69.386719 19.722656 69.328125 19.722656 C 69.328125 19.722656 69.273438 19.722656 69.273438 19.664062 C 69.15625 19.492188 69.097656 19.375 69.097656 19.199219 C 69.097656 18.503906 69.097656 16.941406 68.460938 16.59375 C 67.996094 16.300781 67.996094 16.128906 68.519531 15.953125 C 69.851562 15.488281 72.34375 16.1875 71.589844 18.097656 C 71.359375 18.679688 70.835938 19.085938 70.140625 19.199219 C 69.96875 19.257812 69.792969 19.199219 69.621094 19.199219 C 69.621094 19.257812 69.5625 19.316406 69.5625 19.375 Z M 69.5625 19.375 " fill-opacity="1" fill-rule="nonzero"/><path fill="#ffffff" d="M 73.792969 17.808594 C 73.792969 16.300781 75.417969 15.953125 76.636719 15.894531 C 77.5625 15.839844 77.96875 16.707031 77.855469 17.519531 C 77.855469 17.578125 77.796875 17.636719 77.796875 17.695312 C 77.621094 17.867188 77.390625 18.042969 77.332031 18.332031 C 77.214844 18.796875 76.753906 19.953125 76.171875 20.070312 C 75.648438 20.128906 74.664062 19.375 74.257812 18.96875 C 73.96875 18.621094 73.792969 18.214844 73.792969 17.808594 Z M 73.792969 17.808594 " fill-opacity="1" fill-rule="nonzero"/><path fill="#ffffff" d="M 67.011719 17.460938 C 67.183594 17.519531 67.417969 17.636719 67.648438 17.75 C 67.765625 17.808594 67.765625 17.925781 67.707031 18.042969 C 67.011719 18.96875 68.113281 19.605469 68.632812 20.128906 C 69.15625 20.652344 68.691406 21.40625 68.285156 21.925781 C 67.53125 22.855469 66.664062 22.273438 66.082031 21.636719 C 65.5625 21 65.15625 20.476562 64.863281 19.898438 C 64.460938 19.144531 64.863281 18.097656 65.445312 17.460938 C 66.023438 16.996094 66.429688 17.289062 67.011719 17.460938 Z M 67.011719 17.460938 " fill-opacity="1" fill-rule="nonzero"/><path fill="#ffffff" d="M 72.808594 18.738281 C 72.867188 19.027344 73.273438 19.433594 73.445312 19.605469 C 73.445312 19.605469 73.445312 19.605469 73.445312 19.664062 C 73.445312 19.664062 73.445312 19.664062 73.390625 19.664062 C 73.042969 19.433594 72.519531 19.144531 72.460938 18.738281 C 72.460938 18.679688 72.460938 18.5625 72.519531 18.503906 C 72.578125 18.449219 72.636719 18.449219 72.691406 18.503906 C 72.691406 18.503906 72.691406 18.503906 72.75 18.5625 C 72.808594 18.5625 72.808594 18.621094 72.808594 18.738281 Z M 72.808594 18.738281 " fill-opacity="1" fill-rule="nonzero"/><path fill="#ffffff" d="M 70.027344 20.1875 C 70.605469 20.1875 71.128906 20.011719 71.589844 19.722656 C 71.707031 19.605469 71.9375 19.664062 71.996094 19.78125 C 72.054688 19.839844 72.054688 19.898438 72.054688 19.898438 C 72.113281 20.476562 71.996094 20.941406 71.648438 21.347656 C 71.589844 21.40625 71.535156 21.40625 71.476562 21.40625 C 71.242188 21.40625 71.070312 21.347656 70.894531 21.171875 C 70.605469 20.824219 70.316406 20.535156 69.96875 20.304688 C 69.96875 20.246094 69.96875 20.1875 70.027344 20.1875 C 69.96875 20.1875 70.027344 20.1875 70.027344 20.1875 Z M 70.027344 20.1875 " fill-opacity="1" fill-rule="nonzero"/><path fill="#ffffff" d="M 73.851562 20.011719 C 73.851562 20.304688 73.851562 20.652344 73.738281 20.941406 C 73.679688 21.058594 73.621094 21.058594 73.5625 21.058594 C 73.503906 21.058594 73.445312 21 73.503906 20.941406 C 73.503906 20.941406 73.503906 20.941406 73.503906 20.882812 C 73.679688 20.59375 73.792969 20.304688 73.738281 20.011719 C 73.738281 20.011719 73.738281 19.953125 73.738281 19.953125 L 73.792969 19.953125 C 73.792969 19.953125 73.792969 19.953125 73.851562 20.011719 Z M 73.851562 20.011719 " fill-opacity="1" fill-rule="nonzero"/><path fill="#ffffff" d="M 98.4375 22.5625 C 97.800781 22.160156 97.046875 21.984375 96.410156 21.578125 C 96.351562 21.519531 96.292969 21.40625 96.351562 21.347656 C 96.816406 20.941406 97.683594 20.304688 98.265625 20.707031 C 98.84375 21.058594 98.730469 22.042969 98.554688 22.5625 C 98.613281 22.5625 98.554688 22.5625 98.4375 22.5625 C 98.496094 22.5625 98.4375 22.5625 98.4375 22.5625 Z M 98.4375 22.5625 " fill-opacity="1" fill-rule="nonzero"/><path fill="#ffffff" d="M 83.941406 23.609375 C 83.59375 23.722656 83.1875 23.839844 83.015625 23.375 C 82.78125 22.738281 82.550781 22.101562 83.363281 21.695312 C 83.59375 21.578125 83.769531 21.578125 84 21.695312 C 84.464844 21.984375 84.929688 22.214844 85.449219 22.449219 C 86.785156 23.027344 85.738281 25.230469 84.636719 24.417969 C 84.40625 24.246094 84.289062 23.957031 84.175781 23.722656 C 84.117188 23.667969 84 23.609375 83.941406 23.609375 Z M 83.941406 23.609375 " fill-opacity="1" fill-rule="nonzero"/><path fill="#ffffff" d="M 76.460938 22.96875 C 76.753906 23.550781 76.984375 24.070312 77.273438 24.59375 C 77.332031 24.710938 77.449219 24.882812 77.621094 25.058594 C 77.738281 25.171875 77.910156 25.230469 78.027344 25.171875 C 78.085938 25.171875 78.085938 25.171875 78.085938 25.230469 C 78.027344 25.289062 78.027344 25.40625 77.96875 25.464844 C 77.910156 25.523438 77.796875 25.523438 77.738281 25.464844 C 76.984375 24.769531 76.519531 24.015625 76.347656 23.085938 C 76.347656 23.027344 76.347656 22.96875 76.402344 22.914062 C 76.460938 22.855469 76.460938 22.796875 76.460938 22.796875 C 76.460938 22.507812 76.519531 22.214844 76.695312 21.984375 C 76.695312 21.925781 76.753906 21.925781 76.808594 21.984375 C 76.984375 22.101562 77.101562 22.273438 77.214844 22.449219 C 77.273438 22.507812 77.214844 22.621094 77.15625 22.679688 C 77.15625 22.679688 77.101562 22.679688 77.101562 22.679688 C 76.925781 22.679688 76.753906 22.738281 76.578125 22.796875 C 76.460938 22.855469 76.460938 22.914062 76.460938 22.96875 Z M 76.460938 22.96875 " fill-opacity="1" fill-rule="nonzero"/><path fill="#ffffff" d="M 96.929688 26.277344 C 96.699219 26.679688 96.757812 26.972656 97.046875 27.203125 C 97.164062 27.261719 97.164062 27.378906 97.105469 27.492188 C 96.816406 27.78125 96.46875 27.839844 96.121094 27.609375 C 95.773438 27.378906 95.480469 27.085938 95.25 26.738281 C 94.207031 25.347656 93.335938 24.246094 92.058594 23.433594 C 91.945312 23.375 91.945312 23.316406 92.117188 23.316406 C 92.929688 23.203125 93.742188 22.914062 94.496094 22.332031 C 94.785156 22.101562 95.132812 22.101562 95.421875 22.214844 C 96.46875 22.5625 99.773438 24.246094 98.554688 25.8125 C 98.207031 26.21875 98.148438 26.796875 97.453125 26.566406 C 97.394531 26.566406 97.394531 26.507812 97.335938 26.507812 L 97.105469 26.21875 C 97.046875 26.21875 96.988281 26.21875 96.929688 26.277344 Z M 96.929688 26.277344 " fill-opacity="1" fill-rule="nonzero"/><path fill="#ffffff" d="M 82.78125 23.957031 C 82.78125 24.085938 82.738281 24.195312 82.648438 24.285156 C 82.554688 24.375 82.445312 24.417969 82.320312 24.417969 C 82.191406 24.417969 82.082031 24.375 81.992188 24.285156 C 81.898438 24.195312 81.855469 24.085938 81.855469 23.957031 C 81.855469 23.828125 81.898438 23.71875 81.992188 23.628906 C 82.082031 23.539062 82.191406 23.492188 82.320312 23.492188 C 82.445312 23.492188 82.554688 23.539062 82.648438 23.628906 C 82.738281 23.71875 82.78125 23.828125 82.78125 23.957031 Z M 82.78125 23.957031 " fill-opacity="1" fill-rule="nonzero"/><path fill="#ffffff" d="M 51.703125 27.898438 C 51.761719 27.78125 51.703125 27.726562 51.644531 27.726562 C 51.46875 27.667969 51.355469 27.609375 51.238281 27.492188 C 51.179688 27.433594 51.238281 27.378906 51.296875 27.320312 C 51.644531 27.085938 51.761719 26.738281 51.585938 26.277344 C 51.296875 25.171875 52.167969 24.304688 53.210938 24.1875 C 54.023438 24.070312 55.296875 25 55.992188 25.464844 C 56.457031 25.8125 56.6875 26.332031 56.6875 27.144531 C 56.6875 27.667969 56.339844 27.898438 55.933594 28.132812 C 55.878906 28.1875 55.820312 28.246094 55.878906 28.304688 C 55.933594 28.421875 55.878906 28.535156 55.820312 28.710938 C 55.066406 30.390625 53.382812 28.652344 52.167969 29.058594 C 51.992188 29.117188 51.761719 29.058594 51.703125 28.886719 C 51.527344 28.535156 51.527344 28.1875 51.703125 27.898438 Z M 52.109375 27.839844 C 52.804688 28.246094 53.964844 29.058594 54.71875 28.246094 C 54.777344 28.1875 54.777344 28.132812 54.777344 28.074219 C 54.542969 27.492188 54.253906 27.027344 53.90625 26.566406 C 53.847656 26.507812 53.789062 26.449219 53.730469 26.449219 C 53.269531 26.390625 52.921875 26.332031 52.570312 26.390625 C 52.050781 26.449219 52.050781 27.261719 52.050781 27.667969 C 51.992188 27.726562 52.050781 27.78125 52.109375 27.839844 Z M 52.109375 27.839844 " fill-opacity="1" fill-rule="nonzero"/><path fill="#ffffff" d="M 78.375 24.652344 C 78.433594 24.59375 78.492188 24.535156 78.550781 24.535156 C 78.609375 24.535156 78.664062 24.535156 78.609375 24.652344 C 78.492188 24.824219 78.433594 24.941406 78.257812 25.058594 C 78.203125 25.117188 78.203125 25.117188 78.203125 25 C 78.257812 24.824219 78.316406 24.769531 78.375 24.652344 Z M 78.375 24.652344 " fill-opacity="1" fill-rule="nonzero"/><path fill="#ffffff" d="M 56.804688 25.40625 C 56.921875 25.753906 57.152344 26.101562 57.441406 26.390625 C 57.558594 26.507812 57.558594 26.625 57.386719 26.625 C 57.328125 26.625 57.210938 26.625 57.152344 26.566406 C 57.09375 26.507812 57.035156 26.449219 57.035156 26.332031 C 56.921875 25.984375 56.6875 25.753906 56.515625 25.464844 C 56.457031 25.40625 56.457031 25.347656 56.515625 25.230469 L 56.574219 25.171875 C 56.632812 25.117188 56.6875 25.117188 56.746094 25.171875 C 56.6875 25.230469 56.746094 25.289062 56.804688 25.40625 Z M 56.804688 25.40625 " fill-opacity="1" fill-rule="nonzero"/><path fill="#ffffff" d="M 80.015625 25.207031 C 80.167969 25.230469 80.234375 25.316406 80.210938 25.472656 C 80.1875 25.625 80.101562 25.691406 79.949219 25.667969 C 79.796875 25.644531 79.730469 25.558594 79.753906 25.402344 C 79.773438 25.25 79.863281 25.1875 80.015625 25.207031 Z M 80.015625 25.207031 " fill-opacity="1" fill-rule="nonzero"/><path fill="#ffffff" d="M 57.90625 26.972656 L 58.3125 27.378906 C 58.3125 27.378906 58.371094 27.433594 58.429688 27.378906 L 58.429688 27.320312 C 58.488281 27.261719 58.429688 27.203125 58.429688 27.144531 C 58.082031 26.738281 57.90625 26.277344 57.90625 25.695312 C 57.90625 25.40625 58.082031 25.289062 58.3125 25.347656 C 58.488281 25.40625 58.660156 25.523438 58.71875 25.695312 C 59.007812 26.277344 59.007812 26.855469 58.71875 27.492188 C 58.660156 27.609375 58.542969 27.667969 58.429688 27.667969 C 58.023438 27.667969 57.847656 27.433594 57.90625 26.972656 Z M 57.90625 26.972656 " fill-opacity="1" fill-rule="nonzero"/><path fill="#ffffff" d="M 69.503906 29.582031 C 69.5625 29.523438 69.621094 29.40625 69.5625 29.347656 C 69.503906 29.289062 69.503906 29.289062 69.445312 29.289062 C 69.328125 29.289062 69.214844 29.234375 69.15625 29.117188 C 69.15625 29.058594 69.15625 29 69.214844 28.941406 C 69.214844 28.941406 69.273438 28.941406 69.273438 28.941406 C 69.734375 29.058594 70.199219 29.058594 70.664062 28.941406 C 70.722656 28.941406 70.78125 28.886719 70.78125 28.828125 C 70.78125 28.535156 70.722656 28.246094 70.605469 27.957031 C 70.605469 27.898438 70.546875 27.839844 70.433594 27.839844 C 70.082031 27.78125 69.792969 27.78125 69.503906 27.898438 C 69.445312 27.898438 69.386719 27.957031 69.386719 28.015625 L 69.214844 28.480469 C 69.15625 28.59375 69.15625 28.59375 69.15625 28.480469 C 69.15625 27.492188 69.328125 26.625 70.316406 26.332031 C 71.417969 25.984375 71.9375 26.914062 72.578125 27.550781 C 72.75 27.726562 72.691406 27.78125 72.460938 27.726562 C 71.765625 27.609375 70.835938 28.074219 70.953125 28.886719 C 70.953125 28.941406 71.011719 29 71.011719 29.058594 C 71.242188 29.289062 71.648438 29.464844 71.589844 29.871094 C 71.535156 30.449219 71.242188 31.261719 70.664062 31.496094 C 69.792969 31.84375 69.15625 30.914062 69.15625 30.101562 C 69.15625 30.042969 69.214844 29.988281 69.273438 29.929688 Z M 69.503906 29.582031 " fill-opacity="1" fill-rule="nonzero"/><path fill="#ffffff" d="M 80.058594 26.449219 C 80.117188 26.507812 80.117188 26.566406 80.117188 26.625 C 80 26.796875 79.710938 26.855469 79.535156 26.738281 L 79.476562 26.679688 C 79.246094 26.566406 79.1875 26.277344 79.304688 26.101562 C 79.363281 26.042969 79.417969 26.042969 79.476562 26.042969 Z M 80.058594 26.449219 " fill-opacity="1" fill-rule="nonzero"/><path fill="#ffffff" d="M 98.496094 27.78125 C 98.382812 27.726562 98.324219 27.609375 98.382812 27.492188 C 98.382812 27.492188 98.382812 27.433594 98.4375 27.433594 C 98.613281 27.261719 98.785156 27.085938 98.902344 26.855469 C 99.019531 26.679688 99.191406 26.566406 99.367188 26.566406 L 99.714844 26.566406 C 99.945312 26.566406 100.003906 26.679688 99.886719 26.855469 C 99.714844 27.144531 99.714844 27.492188 99.773438 27.898438 C 99.773438 28.015625 99.714844 28.132812 99.597656 28.132812 C 99.597656 28.132812 99.539062 28.132812 99.539062 28.132812 C 99.191406 28.074219 98.84375 27.957031 98.496094 27.78125 Z M 99.484375 27.203125 C 99.308594 27.085938 99.191406 27.085938 99.078125 27.203125 C 99.019531 27.261719 99.019531 27.320312 99.078125 27.378906 C 99.078125 27.378906 99.132812 27.378906 99.132812 27.433594 C 99.25 27.492188 99.367188 27.433594 99.484375 27.378906 C 99.539062 27.320312 99.539062 27.261719 99.484375 27.203125 C 99.539062 27.203125 99.539062 27.203125 99.484375 27.203125 Z M 99.484375 27.203125 " fill-opacity="1" fill-rule="nonzero"/><path fill="#ffffff" d="M 57.90625 26.972656 C 57.789062 26.914062 57.675781 26.796875 57.675781 26.679688 C 57.675781 26.625 57.675781 26.625 57.734375 26.625 C 57.847656 26.679688 57.90625 26.796875 57.90625 26.972656 Z M 57.90625 26.972656 " fill-opacity="1" fill-rule="nonzero"/><path fill="#ffffff" d="M 36.972656 31.496094 C 36.972656 31.320312 37.03125 31.089844 37.148438 30.914062 C 37.496094 30.277344 37.726562 29.636719 37.960938 28.941406 C 38.074219 28.480469 38.65625 28.421875 38.945312 28.769531 C 39.003906 28.828125 39.0625 28.828125 39.121094 28.828125 L 39.816406 28.363281 C 39.988281 28.246094 40.164062 28.304688 40.277344 28.421875 C 40.277344 28.421875 40.335938 28.480469 40.335938 28.535156 C 40.511719 29.058594 41.089844 29.347656 41.671875 29.523438 C 41.730469 29.523438 41.730469 29.582031 41.730469 29.636719 L 41.730469 29.695312 C 41.730469 29.695312 41.730469 29.695312 41.671875 29.695312 C 41.4375 29.695312 41.324219 29.582031 41.148438 29.464844 C 41.089844 29.40625 41.089844 29.40625 41.03125 29.347656 C 40.742188 29.234375 40.511719 29.117188 40.277344 28.886719 C 40.222656 28.886719 40.222656 28.886719 40.164062 28.886719 C 39.699219 29.582031 39.929688 30.101562 40.683594 30.335938 C 40.976562 30.449219 41.207031 30.21875 41.496094 30.277344 C 41.554688 30.277344 41.613281 30.335938 41.613281 30.335938 L 42.191406 31.261719 C 42.25 31.378906 42.191406 31.496094 42.132812 31.550781 C 42.078125 31.609375 42.019531 31.667969 41.960938 31.726562 C 41.902344 31.785156 41.902344 31.84375 41.960938 31.898438 L 42.367188 32.363281 C 42.425781 32.421875 42.425781 32.539062 42.425781 32.652344 C 42.191406 33.234375 41.496094 33.582031 41.089844 32.886719 C 41.03125 32.769531 40.917969 32.769531 40.859375 32.886719 C 40.335938 33.464844 39.816406 33.351562 39.121094 33.40625 C 38.480469 33.523438 37.84375 33.699219 37.378906 33.117188 C 37.03125 32.652344 36.511719 32.539062 35.988281 32.304688 C 35.699219 32.132812 35.640625 31.898438 35.8125 31.667969 C 36.160156 31.261719 36.511719 31.203125 36.914062 31.496094 C 36.914062 31.609375 36.972656 31.609375 36.972656 31.496094 Z M 38.597656 31.550781 C 38.480469 31.203125 38.308594 31.089844 38.074219 31.320312 C 38.015625 31.378906 38.015625 31.496094 38.074219 31.609375 C 38.191406 31.726562 38.367188 31.785156 38.480469 31.726562 C 38.597656 31.667969 38.597656 31.609375 38.597656 31.550781 Z M 40.222656 32.597656 C 40.222656 32.539062 40.105469 32.480469 39.929688 32.421875 C 39.757812 32.363281 39.582031 32.363281 39.582031 32.421875 C 39.582031 32.480469 39.699219 32.539062 39.875 32.597656 C 40.046875 32.652344 40.164062 32.652344 40.222656 32.597656 Z M 40.222656 32.597656 " fill-opacity="1" fill-rule="nonzero"/><path fill="#ffffff" d="M 90.902344 31.203125 C 90.84375 31.320312 90.902344 31.4375 91.015625 31.496094 C 91.191406 31.550781 91.304688 31.609375 91.421875 31.667969 C 91.597656 31.785156 91.597656 31.898438 91.421875 31.957031 C 90.957031 32.191406 90.84375 31.785156 90.726562 31.4375 C 90.726562 31.378906 90.667969 31.320312 90.554688 31.320312 C 89.972656 31.261719 88.988281 31.378906 88.988281 32.132812 C 88.988281 32.480469 88.988281 32.828125 89.101562 33.175781 C 89.101562 33.234375 89.101562 33.292969 89.046875 33.292969 C 88.640625 33.40625 88.464844 32.828125 88.40625 32.539062 C 88.347656 32.363281 88.292969 32.246094 88.117188 32.191406 C 87.710938 32.015625 87.363281 31.84375 86.957031 31.667969 C 86.203125 31.203125 86.144531 30.390625 86.785156 29.8125 C 87.074219 29.582031 87.304688 29.289062 87.480469 29 C 87.539062 28.886719 87.710938 28.828125 87.828125 28.886719 C 88 28.941406 88.117188 29.058594 88.058594 29.234375 C 87.886719 29.871094 87.710938 30.742188 88.347656 31.089844 C 88.988281 31.378906 89.683594 30.972656 89.972656 30.390625 C 90.03125 30.335938 90.03125 30.21875 89.972656 30.101562 L 89.21875 29 C 89.101562 28.828125 89.160156 28.710938 89.335938 28.59375 C 89.335938 28.59375 89.394531 28.59375 89.394531 28.59375 C 89.566406 28.535156 89.683594 28.59375 89.800781 28.710938 L 91.015625 30.390625 C 91.132812 30.566406 91.132812 30.855469 90.957031 30.972656 C 90.957031 31.089844 90.902344 31.144531 90.902344 31.203125 Z M 90.902344 31.203125 " fill-opacity="1" fill-rule="nonzero"/><path fill="#ffffff" d="M 47.585938 29.8125 C 47.757812 30.277344 48.050781 30.566406 48.453125 30.683594 C 48.511719 30.683594 48.570312 30.742188 48.570312 30.796875 C 48.570312 30.855469 48.570312 30.972656 48.570312 31.03125 C 48.570312 31.089844 48.511719 31.144531 48.453125 31.144531 L 47.816406 31.144531 C 47.757812 31.144531 47.703125 31.144531 47.644531 31.089844 C 47.351562 30.683594 47.121094 30.21875 47.003906 29.753906 C 46.949219 29.636719 47.003906 29.523438 47.121094 29.464844 L 47.757812 29 C 47.875 28.941406 47.933594 28.941406 48.050781 29 C 48.105469 29 48.105469 29.058594 48.105469 29.117188 C 48.164062 29.234375 48.105469 29.347656 47.992188 29.40625 L 47.585938 29.636719 C 47.585938 29.695312 47.527344 29.753906 47.585938 29.8125 Z M 47.585938 29.8125 " fill-opacity="1" fill-rule="nonzero"/><path fill="#ffffff" d="M 75.648438 31.726562 C 76.054688 31.203125 76.054688 30.277344 76.054688 29.582031 C 76.054688 29.40625 76 29.289062 75.941406 29.175781 C 75.882812 29.117188 75.882812 29.058594 76 29 C 76.054688 29 76.171875 28.941406 76.230469 29 C 76.289062 29 76.347656 29.058594 76.347656 29.117188 C 76.578125 30.449219 76.289062 31.609375 75.535156 32.652344 C 75.246094 33 75.128906 32.945312 75.128906 32.539062 C 75.128906 32.246094 75.128906 31.898438 75.1875 31.550781 C 75.1875 31.4375 75.246094 31.4375 75.300781 31.496094 C 75.359375 31.550781 75.417969 31.609375 75.476562 31.667969 C 75.535156 31.785156 75.59375 31.785156 75.648438 31.726562 Z M 75.648438 31.726562 " fill-opacity="1" fill-rule="nonzero"/><path fill="#ffffff" d="M 67.53125 31.03125 C 67.53125 31.222656 67.464844 31.386719 67.328125 31.523438 C 67.191406 31.65625 67.027344 31.726562 66.835938 31.726562 C 66.644531 31.726562 66.480469 31.65625 66.34375 31.523438 C 66.207031 31.386719 66.140625 31.222656 66.140625 31.03125 C 66.140625 30.839844 66.207031 30.675781 66.34375 30.539062 C 66.480469 30.402344 66.644531 30.335938 66.835938 30.335938 C 67.027344 30.335938 67.191406 30.402344 67.328125 30.539062 C 67.464844 30.675781 67.53125 30.839844 67.53125 31.03125 Z M 67.53125 31.03125 " fill-opacity="1" fill-rule="nonzero"/><path fill="#ffffff" d="M 47.644531 31.550781 C 47.703125 31.726562 47.757812 31.785156 47.816406 31.898438 C 47.933594 32.074219 47.875 32.132812 47.703125 31.957031 C 47.585938 31.84375 47.527344 31.726562 47.527344 31.550781 C 47.585938 31.4375 47.585938 31.4375 47.644531 31.550781 Z M 47.644531 31.550781 " fill-opacity="1" fill-rule="nonzero"/><path fill="#ffffff" d="M 64.460938 32.886719 C 64.34375 33.292969 64.34375 33.640625 64.460938 33.929688 C 64.980469 34.855469 65.910156 35.902344 66.953125 35.960938 C 67.070312 35.960938 67.125 36.015625 67.070312 36.132812 C 67.070312 36.191406 67.070312 36.191406 67.070312 36.25 C 67.070312 36.363281 66.953125 36.421875 66.835938 36.421875 C 65.734375 36.132812 64.863281 35.554688 64.34375 34.625 C 63.878906 33.929688 63.996094 33 64.285156 32.191406 C 64.34375 32.074219 64.402344 32.074219 64.515625 32.074219 C 64.980469 32.191406 65.15625 32.597656 64.921875 33 C 64.863281 33.058594 64.808594 33.058594 64.75 33 C 64.691406 32.945312 64.632812 32.886719 64.632812 32.828125 C 64.515625 32.769531 64.460938 32.828125 64.460938 32.886719 Z M 64.460938 32.886719 " fill-opacity="1" fill-rule="nonzero"/><path fill="#ffffff" d="M 93.859375 32.132812 C 94.378906 32.304688 94.4375 32.828125 94.726562 33.292969 C 94.785156 33.351562 94.726562 33.40625 94.667969 33.40625 C 94.613281 33.40625 94.613281 33.40625 94.554688 33.351562 C 94.378906 33.117188 94.089844 33 93.859375 32.945312 C 93.625 32.886719 93.511719 32.769531 93.511719 32.480469 C 93.511719 32.480469 93.511719 32.421875 93.511719 32.363281 C 93.511719 32.132812 93.625 32.015625 93.859375 32.132812 Z M 93.859375 32.132812 " fill-opacity="1" fill-rule="nonzero"/><path fill="#ffffff" d="M 100.292969 33.058594 C 100.121094 33.117188 100.121094 33.175781 100.292969 33.175781 C 101.453125 33.351562 101.742188 34.566406 100.816406 35.320312 C 100.46875 35.609375 100.0625 35.667969 99.65625 35.496094 C 99.597656 35.496094 99.539062 35.4375 99.539062 35.378906 C 99.191406 34.855469 99.019531 34.277344 99.019531 33.640625 C 99.019531 33.464844 99.132812 33.292969 99.308594 33.234375 L 99.597656 33.175781 C 99.65625 33.175781 99.714844 33.058594 99.714844 33 C 99.65625 32.886719 99.65625 32.769531 99.65625 32.652344 C 99.65625 32.597656 99.714844 32.539062 99.773438 32.539062 C 100.003906 32.539062 100.179688 32.597656 100.410156 32.597656 C 100.46875 32.597656 100.527344 32.652344 100.585938 32.652344 C 100.640625 32.710938 100.640625 32.769531 100.585938 32.769531 C 100.585938 32.828125 100.527344 32.886719 100.46875 32.886719 Z M 100.292969 33.058594 " fill-opacity="1" fill-rule="nonzero"/><path fill="#ffffff" d="M 51.296875 33.8125 C 51.703125 33.8125 52.109375 33.929688 52.515625 34.160156 C 52.570312 34.160156 52.570312 34.21875 52.570312 34.21875 C 52.628906 34.335938 52.570312 34.394531 52.457031 34.394531 C 52.398438 34.394531 52.398438 34.394531 52.339844 34.394531 L 51.007812 33.871094 C 50.949219 33.871094 50.890625 33.753906 50.832031 33.699219 C 50.773438 33.464844 50.714844 33.351562 50.773438 33.351562 C 50.832031 33.351562 50.890625 33.40625 50.890625 33.464844 C 50.949219 33.582031 50.949219 33.640625 51.007812 33.699219 C 51.179688 33.753906 51.238281 33.8125 51.296875 33.8125 Z M 51.296875 33.8125 " fill-opacity="1" fill-rule="nonzero"/><path fill="#ffffff" d="M 73.097656 34.160156 C 72.984375 34.160156 72.925781 34.105469 72.867188 33.988281 C 72.867188 33.929688 72.867188 33.871094 72.867188 33.871094 C 72.867188 33.8125 72.925781 33.753906 72.984375 33.753906 L 73.445312 33.8125 C 73.503906 33.8125 73.5625 33.871094 73.621094 33.871094 C 73.679688 33.929688 73.679688 33.988281 73.621094 34.046875 C 73.621094 34.105469 73.5625 34.160156 73.503906 34.160156 C 73.332031 34.160156 73.214844 34.160156 73.097656 34.160156 Z M 73.097656 34.160156 " fill-opacity="1" fill-rule="nonzero"/><path fill="#ffffff" d="M 69.734375 34.507812 C 69.679688 34.453125 69.679688 34.335938 69.679688 34.277344 C 69.679688 34.21875 69.679688 34.160156 69.734375 34.160156 C 69.792969 34.160156 69.792969 34.105469 69.851562 34.160156 C 69.910156 34.160156 69.96875 34.21875 69.96875 34.277344 C 69.96875 34.394531 69.96875 34.507812 69.851562 34.566406 C 69.851562 34.566406 69.792969 34.566406 69.734375 34.507812 Z M 69.734375 34.507812 " fill-opacity="1" fill-rule="nonzero"/><path fill="#ffffff" d="M 105.804688 34.914062 C 106.035156 35.320312 106.265625 35.609375 106.613281 35.785156 C 106.671875 35.84375 106.730469 35.84375 106.789062 35.785156 L 106.847656 35.726562 C 106.960938 35.667969 107.019531 35.726562 106.960938 35.84375 C 106.960938 35.902344 106.90625 35.960938 106.789062 36.015625 C 106.730469 36.074219 106.613281 36.015625 106.558594 35.960938 C 106.207031 35.609375 105.859375 35.320312 105.570312 34.972656 C 105.457031 34.855469 105.339844 34.855469 105.164062 34.800781 C 104.816406 34.683594 104.816406 34.625 105.164062 34.507812 C 105.804688 34.335938 106.5 34.21875 107.195312 34.160156 C 107.253906 34.160156 107.3125 34.160156 107.3125 34.21875 L 107.3125 34.277344 C 107.3125 34.277344 107.3125 34.335938 107.253906 34.335938 L 105.804688 34.683594 C 105.804688 34.800781 105.746094 34.800781 105.804688 34.914062 Z M 105.804688 34.914062 " fill-opacity="1" fill-rule="nonzero"/><path fill="#ffffff" d="M 67.648438 35.4375 C 67.589844 35.378906 67.53125 35.378906 67.472656 35.378906 C 67.359375 35.4375 67.359375 35.378906 67.417969 35.320312 C 67.417969 35.261719 67.472656 35.261719 67.472656 35.261719 C 67.53125 35.207031 67.589844 35.261719 67.648438 35.261719 C 67.9375 35.554688 68.980469 35.320312 69.386719 35.207031 C 69.734375 35.089844 69.792969 35.148438 69.503906 35.4375 C 69.039062 35.902344 68.519531 36.191406 67.878906 36.308594 C 67.824219 36.308594 67.765625 36.308594 67.707031 36.191406 L 67.707031 35.609375 C 67.707031 35.554688 67.707031 35.496094 67.648438 35.4375 Z M 67.648438 35.4375 " fill-opacity="1" fill-rule="nonzero"/><path fill="#ffffff" d="M 82.957031 35.667969 C 82.898438 35.667969 82.839844 35.726562 82.726562 35.667969 C 82.667969 35.667969 82.609375 35.609375 82.609375 35.554688 L 82.609375 35.4375 C 82.609375 35.378906 82.667969 35.320312 82.726562 35.320312 C 82.957031 35.378906 83.1875 35.320312 83.363281 35.207031 C 83.421875 35.148438 83.476562 35.148438 83.476562 35.261719 C 83.476562 35.261719 83.476562 35.320312 83.476562 35.320312 C 83.363281 35.496094 83.1875 35.609375 82.957031 35.667969 Z M 82.957031 35.667969 " fill-opacity="1" fill-rule="nonzero"/><path fill="#ffffff" d="M 87.828125 35.496094 C 87.886719 35.496094 87.886719 35.496094 87.886719 35.496094 L 89.21875 37.003906 C 89.21875 37.003906 89.21875 37.0625 89.21875 37.0625 C 89.21875 37.0625 89.160156 37.0625 89.160156 37.0625 L 87.828125 35.554688 C 87.828125 35.554688 87.828125 35.496094 87.828125 35.496094 Z M 87.828125 35.496094 " fill-opacity="1" fill-rule="nonzero"/><path fill="#ffffff" d="M 83.769531 36.539062 C 84.117188 36.132812 84.753906 35.902344 85.21875 35.960938 C 85.277344 35.960938 85.335938 36.015625 85.335938 36.074219 C 85.683594 36.597656 85.390625 37.464844 84.929688 37.816406 C 84.871094 37.871094 84.8125 37.871094 84.753906 37.816406 C 84.40625 37.523438 84.058594 37.117188 83.769531 36.714844 C 83.769531 36.65625 83.769531 36.597656 83.769531 36.539062 Z M 83.769531 36.539062 " fill-opacity="1" fill-rule="nonzero"/><path fill="#ffffff" d="M 44.859375 36.308594 C 44.859375 36.25 44.917969 36.191406 44.976562 36.191406 C 45.035156 36.132812 45.09375 36.132812 45.09375 36.25 C 45.09375 36.363281 45.035156 36.480469 44.859375 36.539062 C 44.800781 36.539062 44.800781 36.539062 44.800781 36.480469 C 44.800781 36.421875 44.800781 36.421875 44.859375 36.421875 C 44.859375 36.363281 44.859375 36.363281 44.859375 36.308594 Z M 44.859375 36.308594 " fill-opacity="1" fill-rule="nonzero"/><path fill="#ffffff" d="M 42.308594 37.351562 L 42.078125 37.351562 C 41.960938 37.351562 41.960938 37.292969 42.019531 37.234375 L 42.425781 36.945312 C 42.484375 36.886719 42.539062 36.945312 42.539062 36.945312 C 42.539062 36.945312 42.539062 37.003906 42.539062 37.003906 C 42.539062 37.410156 42.773438 37.582031 43.121094 37.699219 C 43.121094 37.699219 43.179688 37.757812 43.121094 37.757812 L 43.121094 37.816406 C 43.0625 37.871094 43.0625 37.871094 43.003906 37.816406 L 42.484375 37.351562 C 42.425781 37.351562 42.367188 37.351562 42.308594 37.351562 Z M 42.308594 37.351562 " fill-opacity="1" fill-rule="nonzero"/><path fill="#ffffff" d="M 105.859375 37.464844 C 106.207031 37.816406 106.152344 38.277344 106.671875 38.570312 C 106.730469 38.570312 106.730469 38.625 106.730469 38.683594 C 106.730469 38.683594 106.671875 38.742188 106.671875 38.742188 L 105.917969 38.917969 C 105.804688 38.917969 105.746094 38.917969 105.746094 38.800781 L 105.804688 37.582031 C 105.804688 37.464844 105.804688 37.464844 105.859375 37.464844 Z M 105.859375 37.464844 " fill-opacity="1" fill-rule="nonzero"/><path fill="#ffffff" d="M 44.742188 38.105469 C 44.6875 38.21875 44.628906 38.21875 44.570312 38.105469 C 44.511719 37.988281 44.511719 37.816406 44.570312 37.699219 C 44.570312 37.640625 44.6875 37.582031 44.742188 37.640625 C 44.800781 37.640625 44.800781 37.699219 44.800781 37.699219 C 44.859375 37.816406 44.800781 37.929688 44.742188 38.105469 Z M 44.742188 38.105469 " fill-opacity="1" fill-rule="nonzero"/><path fill="#ffffff" d="M 94.378906 38.832031 C 94.523438 38.839844 94.644531 38.878906 94.742188 38.949219 C 94.839844 39.023438 94.886719 39.105469 94.882812 39.203125 C 94.878906 39.296875 94.824219 39.378906 94.722656 39.441406 C 94.617188 39.503906 94.492188 39.535156 94.347656 39.527344 C 94.203125 39.523438 94.082031 39.484375 93.984375 39.410156 C 93.886719 39.339844 93.835938 39.253906 93.839844 39.160156 C 93.84375 39.0625 93.898438 38.984375 94.003906 38.917969 C 94.109375 38.855469 94.234375 38.828125 94.378906 38.832031 Z M 94.378906 38.832031 " fill-opacity="1" fill-rule="nonzero"/><path fill="#ffffff" d="M 100.351562 40.773438 C 100.292969 40.65625 100.238281 40.714844 100.179688 40.828125 C 100.003906 41.46875 99.308594 41.234375 99.019531 40.886719 C 98.84375 40.65625 98.671875 40.425781 98.4375 40.191406 C 98.378906 40.132812 98.378906 40.074219 98.496094 40.074219 C 98.960938 40.019531 99.367188 40.019531 99.773438 40.074219 C 101.164062 40.25 102.441406 42.859375 101.570312 43.960938 C 101.453125 44.136719 101.394531 44.136719 101.394531 43.902344 C 101.511719 42.742188 101.164062 41.699219 100.351562 40.773438 Z M 100.351562 40.773438 " fill-opacity="1" fill-rule="nonzero"/><path fill="#ffffff" d="M 59.183594 41.410156 L 59.296875 40.539062 C 59.296875 40.367188 59.414062 40.25 59.589844 40.25 C 60.285156 40.191406 60.804688 40.367188 61.269531 40.828125 C 61.964844 41.527344 62.371094 42.28125 62.488281 43.148438 C 62.605469 43.730469 62.253906 43.960938 61.851562 44.191406 C 61.792969 44.25 61.734375 44.308594 61.734375 44.367188 L 61.617188 44.597656 C 61.558594 44.773438 61.328125 44.832031 61.152344 44.773438 C 61.097656 44.714844 60.980469 44.65625 60.980469 44.597656 L 60.804688 44.136719 C 60.746094 43.902344 60.632812 43.902344 60.515625 44.078125 C 60.34375 44.308594 60.285156 44.597656 59.996094 44.773438 C 59.703125 44.945312 59.296875 45.003906 59.007812 44.773438 C 58.601562 44.425781 58.136719 44.136719 57.617188 43.84375 C 56.457031 43.207031 56.632812 42.164062 57.09375 41.121094 C 57.328125 40.597656 57.734375 40.367188 58.371094 40.425781 C 58.488281 40.425781 58.542969 40.480469 58.601562 40.597656 C 58.71875 40.828125 58.890625 41.121094 59.066406 41.46875 C 59.125 41.582031 59.183594 41.582031 59.183594 41.410156 Z M 60.109375 42.105469 C 60.167969 42.105469 60.226562 41.988281 60.167969 41.875 C 60.109375 41.757812 60.050781 41.699219 59.996094 41.757812 C 59.9375 41.757812 59.878906 41.875 59.9375 41.988281 C 59.996094 42.046875 60.050781 42.105469 60.109375 42.105469 Z M 60.109375 42.105469 " fill-opacity="1" fill-rule="nonzero"/><path fill="#ffffff" d="M 71.824219 42.222656 C 72.113281 41.988281 72.519531 41.582031 72.867188 42.046875 C 72.984375 42.164062 72.925781 42.28125 72.808594 42.335938 C 72.578125 42.453125 72.402344 42.570312 72.34375 42.800781 C 72.289062 42.976562 72.171875 43.148438 71.996094 43.324219 C 71.9375 43.382812 71.9375 43.382812 71.882812 43.382812 C 71.648438 43.382812 71.417969 43.382812 71.128906 43.265625 C 71.070312 43.265625 71.011719 43.207031 71.011719 43.089844 L 71.011719 42.164062 C 71.011719 42.105469 71.070312 42.046875 71.128906 42.046875 C 71.300781 41.988281 71.417969 42.046875 71.535156 42.164062 C 71.648438 42.28125 71.707031 42.28125 71.824219 42.222656 Z M 71.824219 42.222656 " fill-opacity="1" fill-rule="nonzero"/><path fill="#ffffff" d="M 68.226562 44.078125 C 68.226562 44.078125 68.226562 44.019531 68.226562 44.019531 L 68.519531 43.671875 C 68.980469 43.148438 69.386719 42.742188 69.445312 42.800781 C 69.503906 42.859375 69.15625 43.324219 68.75 43.84375 L 68.460938 44.191406 C 68.460938 44.191406 68.402344 44.191406 68.402344 44.191406 Z M 68.226562 44.078125 " fill-opacity="1" fill-rule="nonzero"/><path fill="#ffffff" d="M 38.25 43.265625 C 38.308594 43.148438 38.714844 43.382812 39.175781 43.789062 L 39.234375 43.789062 C 39.699219 44.136719 39.988281 44.539062 39.929688 44.597656 Z M 38.25 43.265625 " fill-opacity="1" fill-rule="nonzero"/><path fill="#ffffff" d="M 75.359375 43.324219 L 75.476562 43.382812 C 75.535156 43.4375 75.535156 43.554688 75.476562 43.613281 L 75.417969 43.671875 C 75.359375 43.730469 75.246094 43.730469 75.1875 43.671875 L 75.070312 43.613281 C 75.011719 43.554688 75.011719 43.4375 75.070312 43.382812 L 75.128906 43.324219 C 75.128906 43.265625 75.246094 43.265625 75.359375 43.324219 Z M 75.359375 43.324219 " fill-opacity="1" fill-rule="nonzero"/><path fill="#ffffff" d="M 74.546875 43.671875 L 74.605469 43.4375 C 74.605469 43.382812 74.664062 43.382812 74.722656 43.382812 C 74.722656 43.382812 74.78125 43.382812 74.78125 43.4375 C 74.839844 43.496094 74.839844 43.554688 74.78125 43.613281 C 74.722656 43.671875 74.664062 43.730469 74.605469 43.730469 C 74.546875 43.789062 74.492188 43.789062 74.546875 43.671875 Z M 74.546875 43.671875 " fill-opacity="1" fill-rule="nonzero"/><path fill="#ffffff" d="M 93.335938 45.585938 C 93.742188 45.816406 93.859375 46.164062 94.089844 46.511719 C 94.265625 46.800781 94.265625 47.148438 94.03125 47.441406 C 93.625 47.960938 93.046875 48.136719 92.410156 47.960938 C 91.769531 47.789062 91.363281 47.035156 91.828125 46.398438 C 92.003906 46.164062 92.175781 45.875 92.234375 45.527344 C 92.234375 45.46875 92.292969 45.410156 92.351562 45.351562 C 92.410156 45.351562 92.464844 45.351562 92.523438 45.351562 C 92.582031 45.351562 92.640625 45.410156 92.640625 45.46875 L 92.640625 45.644531 C 92.640625 45.699219 92.699219 45.757812 92.757812 45.757812 C 92.929688 45.757812 93.046875 45.699219 93.164062 45.585938 C 93.21875 45.527344 93.21875 45.410156 93.21875 45.351562 C 92.988281 44.714844 92.699219 44.019531 93.105469 43.382812 C 93.164062 43.324219 93.21875 43.265625 93.277344 43.265625 C 93.683594 43.207031 93.972656 43.382812 94.207031 43.671875 C 94.320312 43.84375 94.320312 44.019531 94.148438 44.191406 C 93.859375 44.484375 93.625 44.714844 93.335938 44.945312 C 93.21875 45.0625 93.21875 45.238281 93.335938 45.351562 C 93.277344 45.585938 93.335938 45.585938 93.335938 45.585938 Z M 93.335938 45.585938 " fill-opacity="1" fill-rule="nonzero"/><path fill="#ffffff" d="M 90.84375 43.902344 C 90.726562 43.960938 90.726562 44.078125 90.785156 44.136719 C 90.902344 44.484375 90.84375 44.597656 90.496094 44.597656 C 90.378906 44.597656 90.320312 44.539062 90.378906 44.425781 C 90.496094 44.019531 90.785156 43.4375 91.363281 43.613281 C 91.539062 43.671875 91.597656 43.789062 91.539062 43.960938 C 91.539062 44.019531 91.480469 44.019531 91.421875 44.019531 C 91.421875 44.019531 91.363281 44.019531 91.363281 43.960938 C 91.191406 43.84375 91.015625 43.789062 90.84375 43.902344 Z M 90.84375 43.902344 " fill-opacity="1" fill-rule="nonzero"/><path fill="#ffffff" d="M 52.453125 43.949219 C 52.644531 44.140625 52.742188 44.375 52.738281 44.644531 C 52.738281 44.917969 52.640625 45.148438 52.445312 45.339844 C 52.253906 45.535156 52.019531 45.628906 51.75 45.625 C 51.476562 45.625 51.246094 45.527344 51.054688 45.335938 C 50.863281 45.140625 50.765625 44.90625 50.769531 44.636719 C 50.769531 44.363281 50.867188 44.132812 51.058594 43.941406 C 51.253906 43.75 51.488281 43.652344 51.757812 43.65625 C 52.03125 43.65625 52.261719 43.753906 52.453125 43.949219 Z M 52.453125 43.949219 " fill-opacity="1" fill-rule="nonzero"/><path fill="#ffffff" d="M 95.25 43.789062 L 95.421875 44.019531 C 95.480469 44.078125 95.480469 44.136719 95.367188 44.136719 C 95.25 44.136719 95.132812 43.960938 95.191406 43.84375 C 95.132812 43.789062 95.191406 43.730469 95.25 43.789062 C 95.191406 43.730469 95.191406 43.789062 95.25 43.789062 Z M 95.25 43.789062 " fill-opacity="1" fill-rule="nonzero"/><path fill="#ffffff" d="M 96.640625 43.902344 C 96.699219 43.902344 96.757812 43.902344 96.816406 43.960938 C 96.929688 44.019531 96.929688 44.078125 96.816406 44.136719 C 96.757812 44.191406 96.699219 44.191406 96.640625 44.191406 C 96.582031 44.191406 96.523438 44.136719 96.523438 44.078125 C 96.582031 43.960938 96.582031 43.902344 96.640625 43.902344 Z M 96.640625 43.902344 " fill-opacity="1" fill-rule="nonzero"/><path fill="#ffffff" d="M 64.441406 44.175781 C 64.457031 44.203125 64.433594 44.242188 64.382812 44.292969 C 64.328125 44.339844 64.257812 44.382812 64.171875 44.421875 C 64.082031 44.460938 64.003906 44.480469 63.929688 44.488281 C 63.859375 44.496094 63.816406 44.484375 63.804688 44.453125 C 63.792969 44.425781 63.8125 44.386719 63.867188 44.339844 C 63.917969 44.289062 63.988281 44.246094 64.078125 44.207031 C 64.164062 44.171875 64.246094 44.148438 64.316406 44.140625 C 64.386719 44.136719 64.429688 44.144531 64.441406 44.175781 Z M 64.441406 44.175781 " fill-opacity="1" fill-rule="nonzero"/><path fill="#ffffff" d="M 75.648438 44.890625 L 75.535156 44.484375 C 75.535156 44.425781 75.535156 44.367188 75.59375 44.308594 C 75.652344 44.191406 75.707031 44.191406 75.824219 44.191406 C 75.882812 44.191406 75.941406 44.25 76 44.308594 C 76.289062 44.773438 76.230469 45.179688 75.882812 45.585938 C 75.824219 45.644531 75.765625 45.644531 75.707031 45.644531 C 75.300781 45.410156 75.011719 45.0625 74.78125 44.65625 C 74.664062 44.484375 74.722656 44.484375 74.839844 44.597656 C 75.011719 44.773438 75.246094 44.945312 75.476562 45.0625 C 75.535156 45.121094 75.59375 45.0625 75.652344 45.003906 C 75.648438 44.945312 75.648438 44.890625 75.648438 44.890625 Z M 75.648438 44.890625 " fill-opacity="1" fill-rule="nonzero"/><path fill="#ffffff" d="M 95.367188 44.945312 C 95.480469 44.714844 95.539062 44.714844 95.480469 45.003906 C 95.480469 45.179688 95.421875 45.410156 95.308594 45.644531 C 95.308594 45.699219 95.25 45.699219 95.25 45.699219 L 95.191406 45.644531 C 95.191406 45.644531 95.132812 45.585938 95.191406 45.527344 C 95.191406 45.292969 95.308594 45.121094 95.367188 44.945312 Z M 95.367188 44.945312 " fill-opacity="1" fill-rule="nonzero"/><path fill="#ffffff" d="M 100.933594 45.003906 C 100.757812 44.945312 100.699219 44.890625 100.816406 44.773438 C 100.875 44.714844 100.933594 44.714844 100.988281 44.773438 C 101.105469 44.890625 101.105469 44.945312 100.933594 45.003906 C 100.988281 45.003906 100.988281 45.0625 100.933594 45.003906 Z M 100.933594 45.003906 " fill-opacity="1" fill-rule="nonzero"/><path fill="#ffffff" d="M 41.671875 48.484375 C 40.683594 48.890625 40.511719 47.554688 40.625 46.917969 C 40.742188 46.28125 40.859375 45.699219 41.089844 45.121094 C 41.265625 44.714844 41.671875 44.773438 41.960938 45.003906 C 42.484375 45.410156 43.585938 46.570312 43.121094 47.324219 C 42.832031 47.847656 42.308594 48.195312 41.671875 48.484375 Z M 41.671875 48.484375 " fill-opacity="1" fill-rule="nonzero"/><path fill="#ffffff" d="M 68.285156 45.238281 C 68.171875 45.238281 68.171875 45.179688 68.285156 45.179688 C 68.460938 45.121094 68.632812 45.0625 68.808594 45.003906 C 68.925781 45.003906 68.925781 45.003906 68.808594 45.0625 C 68.632812 45.179688 68.460938 45.238281 68.285156 45.238281 Z M 68.285156 45.238281 " fill-opacity="1" fill-rule="nonzero"/><path fill="#ffffff" d="M 69.386719 45.351562 C 69.273438 45.292969 69.273438 45.238281 69.386719 45.179688 C 69.5625 45.0625 69.679688 45.179688 69.851562 45.410156 C 69.910156 45.46875 69.910156 45.527344 69.792969 45.527344 C 69.679688 45.527344 69.503906 45.46875 69.386719 45.351562 Z M 69.386719 45.351562 " fill-opacity="1" fill-rule="nonzero"/><path fill="#ffffff" d="M 99.308594 46.800781 L 98.902344 47.382812 C 98.730469 47.613281 98.324219 47.671875 98.089844 47.5 C 98.089844 47.5 98.089844 47.5 98.03125 47.5 L 97.570312 47.09375 C 97.335938 46.859375 97.277344 46.511719 97.511719 46.28125 C 97.570312 46.222656 97.628906 46.164062 97.683594 46.164062 L 98.324219 45.875 C 98.496094 45.816406 98.730469 45.816406 98.902344 45.933594 L 99.191406 46.105469 C 99.425781 46.105469 99.539062 46.453125 99.308594 46.800781 C 99.308594 46.746094 99.308594 46.800781 99.308594 46.800781 Z M 99.308594 46.800781 " fill-opacity="1" fill-rule="nonzero"/><path fill="#ffffff" d="M 94.742188 46.046875 C 94.789062 46.0625 94.8125 46.121094 94.816406 46.214844 C 94.820312 46.3125 94.800781 46.421875 94.757812 46.542969 C 94.71875 46.664062 94.667969 46.761719 94.605469 46.839844 C 94.546875 46.914062 94.492188 46.945312 94.449219 46.929688 C 94.402344 46.914062 94.378906 46.855469 94.375 46.761719 C 94.371094 46.664062 94.390625 46.554688 94.429688 46.433594 C 94.46875 46.3125 94.519531 46.214844 94.582031 46.136719 C 94.644531 46.0625 94.695312 46.035156 94.742188 46.046875 Z M 94.742188 46.046875 " fill-opacity="1" fill-rule="nonzero"/><path fill="#ffffff" d="M 68.226562 47.847656 C 68.226562 47.902344 68.171875 47.902344 68.113281 47.902344 C 68.054688 47.902344 68.054688 47.902344 67.996094 47.902344 C 67.9375 47.847656 67.9375 47.847656 67.9375 47.730469 C 67.9375 47.613281 68.054688 47.554688 68.113281 47.5 C 68.171875 47.441406 68.226562 47.5 68.226562 47.554688 C 68.34375 47.671875 68.34375 47.789062 68.226562 47.847656 Z M 68.226562 47.847656 " fill-opacity="1" fill-rule="nonzero"/><path fill="#ffffff" d="M 51.703125 47.847656 C 51.761719 48.019531 51.933594 48.253906 51.875 48.484375 C 51.875 48.542969 51.816406 48.601562 51.703125 48.601562 C 51.703125 48.601562 51.644531 48.601562 51.644531 48.601562 C 51.296875 48.425781 51.179688 48.078125 51.296875 47.671875 C 51.296875 47.613281 51.355469 47.613281 51.414062 47.613281 C 51.585938 47.613281 51.644531 47.730469 51.703125 47.847656 Z M 51.703125 47.847656 " fill-opacity="1" fill-rule="nonzero"/><path fill="#ffffff" d="M 96.0625 47.613281 C 96.121094 47.554688 96.234375 47.554688 96.292969 47.613281 C 96.351562 47.671875 96.351562 47.671875 96.292969 47.730469 C 96.234375 47.789062 96.121094 47.789062 96.0625 47.730469 C 96.0625 47.730469 96.003906 47.671875 96.0625 47.613281 Z M 96.0625 47.613281 " fill-opacity="1" fill-rule="nonzero"/><path fill="#ffffff" d="M 54.078125 48.078125 C 54.136719 48.078125 54.136719 48.078125 54.195312 48.078125 C 54.253906 48.078125 54.3125 48.078125 54.253906 48.136719 C 54.078125 48.367188 53.847656 48.425781 53.617188 48.308594 C 53.558594 48.308594 53.558594 48.253906 53.558594 48.253906 C 53.5 48.136719 53.5 48.019531 53.5 47.902344 C 53.5 47.847656 53.558594 47.847656 53.617188 47.847656 C 53.789062 47.847656 53.90625 47.902344 54.023438 48.019531 C 53.964844 48.078125 54.023438 48.078125 54.078125 48.078125 Z M 54.078125 48.078125 " fill-opacity="1" fill-rule="nonzero"/><path fill="#ffffff" d="M 62.152344 48.136719 C 62.25 48.21875 62.292969 48.339844 62.28125 48.492188 C 62.269531 48.644531 62.203125 48.789062 62.089844 48.921875 C 61.976562 49.054688 61.84375 49.140625 61.691406 49.175781 C 61.542969 49.210938 61.417969 49.1875 61.324219 49.105469 C 61.226562 49.023438 61.183594 48.902344 61.195312 48.75 C 61.207031 48.597656 61.269531 48.453125 61.386719 48.320312 C 61.5 48.183594 61.632812 48.101562 61.78125 48.066406 C 61.933594 48.027344 62.054688 48.054688 62.152344 48.136719 Z M 62.152344 48.136719 " fill-opacity="1" fill-rule="nonzero"/><path fill="#ffffff" d="M 59.472656 49.933594 C 59.066406 50.863281 57.90625 50.109375 57.675781 49.527344 C 57.675781 49.46875 57.675781 49.410156 57.675781 49.355469 C 57.964844 48.832031 59.296875 47.441406 59.589844 48.714844 C 59.703125 49.121094 59.644531 49.527344 59.472656 49.933594 Z M 59.472656 49.933594 " fill-opacity="1" fill-rule="nonzero"/><path fill="#ffffff" d="M 73.042969 49.644531 C 74.953125 48.832031 76.054688 52.773438 73.5625 51.617188 C 73.445312 51.558594 73.332031 51.617188 73.214844 51.730469 C 72.808594 52.367188 72.460938 53.066406 72.289062 53.761719 C 72.289062 53.875 72.171875 53.933594 72.054688 53.875 C 71.535156 53.703125 71.128906 53.414062 70.722656 53.066406 C 70.605469 53.007812 70.605469 52.832031 70.722656 52.773438 C 70.722656 52.71875 70.78125 52.71875 70.835938 52.71875 C 71.476562 52.542969 71.824219 52.136719 71.765625 51.558594 C 71.765625 51.382812 71.648438 51.265625 71.476562 51.265625 C 70.605469 51.152344 69.503906 51.558594 69.273438 50.28125 C 69.15625 49.757812 69.15625 49.296875 69.15625 48.773438 C 69.15625 48.65625 69.214844 48.542969 69.328125 48.542969 C 70.027344 48.253906 70.894531 48.195312 71.589844 48.65625 C 71.9375 48.890625 72.636719 49.179688 72.867188 49.527344 C 72.867188 49.585938 72.925781 49.585938 72.925781 49.644531 C 72.867188 49.644531 72.925781 49.703125 73.042969 49.644531 Z M 73.042969 49.644531 " fill-opacity="1" fill-rule="nonzero"/><path fill="#ffffff" d="M 69.320312 52.007812 C 69.351562 52.117188 69.359375 52.214844 69.339844 52.304688 C 69.320312 52.390625 69.28125 52.445312 69.21875 52.464844 C 69.160156 52.484375 69.09375 52.464844 69.027344 52.402344 C 68.960938 52.339844 68.910156 52.253906 68.878906 52.148438 C 68.84375 52.039062 68.835938 51.941406 68.855469 51.855469 C 68.875 51.765625 68.917969 51.710938 68.976562 51.691406 C 69.039062 51.671875 69.101562 51.695312 69.167969 51.753906 C 69.234375 51.816406 69.285156 51.902344 69.320312 52.007812 Z M 69.320312 52.007812 " fill-opacity="1" fill-rule="nonzero"/><path fill="#ffffff" d="M 71.183594 54.167969 C 70.835938 54.6875 70.082031 54.6875 69.792969 54.109375 C 69.679688 53.820312 69.734375 53.703125 70.027344 53.761719 C 70.433594 53.761719 70.78125 53.875 71.128906 54.050781 C 71.183594 54.050781 71.242188 54.109375 71.183594 54.167969 Z M 71.183594 54.167969 " fill-opacity="1" fill-rule="nonzero"/><path stroke-linecap="butt" transform="matrix(0.75, 0, 0, 0.75, 3.076924, 72.660526)" fill="none" stroke-linejoin="miter" d="M 2.793268 41.99951 C 3.235976 41.838051 3.663059 41.666176 4.053684 41.608885 C 5.75681 41.181801 7.56931 41.004718 9.329726 40.952635 C 9.668268 39.410968 9.668268 36.832843 9.985976 34.520343 C 10.053685 33.530759 10.657851 24.6818 10.81931 21.327634 C 12.298477 23.2443 13.949518 25.124509 15.548477 26.989092 L 18.189102 29.848467 C 18.459935 29.848467 20.44431 29.676592 21.105769 29.619301 C 21.491185 29.140134 23.803686 26.384926 24.834936 24.947425 L 26.543269 22.640134 C 26.543269 22.58805 26.543269 22.58805 26.595352 22.530759 C 27.319311 28.640134 27.975561 34.681801 28.298478 40.791176 L 28.298478 41.181801 C 30.230769 40.900551 32.204728 40.681801 34.194311 40.681801 C 34.07452 38.87451 33.965145 37.046384 33.803686 35.233884 C 33.199519 28.588051 32.152644 19.124508 31.762019 12.410966 C 31.548478 10.759925 31.496394 10.27555 31.387019 9.780758 L 28.689103 9.603675 C 27.642227 9.603675 26.543269 9.603675 25.506811 9.671383 C 23.022436 12.582841 21.652644 14.614092 19.235977 17.030758 C 19.064102 17.15055 18.954727 17.312008 18.85056 17.416175 C 18.35056 17.030758 13.183893 13.082841 11.423477 10.9318 L 11.142227 10.27555 L 11.142227 10.046383 C 10.605768 10.103675 10.110976 10.155758 9.558893 10.27555 C 7.959935 10.437008 6.360976 10.598466 4.767226 10.65055 C 4.215143 17.8068 3.397434 27.812009 3.058893 35.020343 C 2.897434 37.327634 2.845351 39.692218 2.793268 41.99951 Z M 41.058895 41.99951 L 52.829729 41.785968 L 57.168271 37.218259 L 57.720354 19.567217 L 54.751604 16.103675 L 40.788062 17.364092 L 37.595353 21.379717 C 37.381811 26.546384 37.485978 32.265134 37.756811 38.426593 Z M 51.501604 33.973468 L 44.683895 32.817218 L 44.965145 23.134925 L 50.735979 22.58805 Z M 75.532855 41.99951 L 83.064106 14.395341 L 77.074522 14.395341 L 73.387022 28.468259 L 67.89223 13.457841 L 61.022438 13.90055 L 67.006813 41.608885 Z M 86.970356 14.947425 L 93.454731 13.567216 L 93.24119 7.134924 L 86.475564 9.067216 Z M 87.413064 41.99951 L 93.683898 40.84326 L 94.39744 30.171384 L 93.402648 16.707842 L 86.970356 16.155758 L 86.366189 25.999509 Z M 115.012024 32.426593 L 105.829732 35.343259 C 105.506815 34.910968 105.225565 34.306801 105.012024 33.634926 C 107.42869 32.765134 114.689108 29.676592 117.053691 27.702634 C 117.215149 27.364092 117.709941 20.666175 117.053691 19.33805 L 115.121399 17.858883 C 113.095357 16.812008 111.105774 16.155758 109.189107 15.71305 C 106.168274 16.3693 103.626607 17.577633 101.600565 19.228675 C 99.39744 22.035967 98.137023 25.33805 97.694315 29.072426 C 98.08494 33.150551 98.74119 36.723468 100.058898 39.24951 C 102.527649 40.791176 104.782857 41.838051 106.595357 41.99951 C 106.595357 41.99951 117.215149 37.541176 117.709941 35.567218 Z M 111.105774 24.02555 C 111.991191 23.90055 112.866191 24.077634 113.538066 24.504717 C 111.001607 26.213051 106.329732 29.301592 104.517232 30.223467 C 104.569315 28.588051 105.012024 26.937009 105.99119 25.780759 C 105.99119 25.780759 108.689107 24.187009 111.105774 24.02555 Z M 128.756817 41.99951 L 128.756817 40.952635 C 129.199525 38.041176 129.251608 27.364092 129.480775 27.364092 C 131.735984 27.150551 137.277651 26.655759 138.110984 26.603676 C 138.168276 28.520342 138.272442 37.822426 138.272442 38.697426 C 138.324526 39.410968 138.324526 40.134926 138.610984 40.791176 L 138.772442 41.06201 C 140.314109 40.509926 141.949526 40.296385 143.600568 40.239093 L 145.199526 40.134926 C 145.256818 39.796385 145.256818 39.410968 145.428693 35.785968 C 145.538068 33.754718 145.751609 21.041175 145.751609 18.020342 C 145.751609 14.395341 145.642234 8.072424 145.360984 5.431799 C 144.491193 5.483883 139.157859 6.088049 136.6214 6.530758 C 136.959942 10.046383 137.225567 13.739091 137.564109 19.728675 L 137.668276 20.666175 C 135.022442 20.4943 131.293275 20.562009 129.532858 20.666175 C 129.532858 19.285967 129.642233 12.249508 129.975567 9.280758 L 129.975567 9.176591 C 128.595358 9.33805 126.834942 8.624508 125.735983 8.395341 L 121.006816 8.395341 C 121.397441 13.187008 121.949525 31.608884 121.949525 41.06201 C 124.256816 41.181801 126.501608 41.504718 128.756817 41.99951 Z M 165.215152 51.020344 L 171.267236 47.827635 L 171.147444 25.551592 L 163.84536 22.692217 C 160.262027 31.718259 161.147444 32.213051 158.074527 32.603676 C 155.590152 29.905759 158.50161 20.171383 158.678693 16.046383 L 151.303693 14.718258 C 149.267235 22.58805 148.340151 30.291176 149.652651 37.650551 L 154.663068 42.270343 L 161.855777 40.18701 Z M 177.084945 41.608885 C 179.782861 42.160968 184.137028 41.785968 185.28807 41.447426 C 186.996403 40.900551 191.610987 34.858884 191.610987 34.858884 C 193.262029 29.301592 193.532862 28.197426 192.485987 21.822425 C 191.22557 19.957842 189.465154 18.6818 187.423487 17.8068 C 185.449528 18.358883 183.69432 18.96305 181.985986 20.27555 C 182.199528 16.155758 181.985986 11.535966 181.439111 6.421383 L 176.590153 5.270341 C 175.006819 13.791175 174.334944 23.296384 174.616194 33.812009 C 175.381819 37.71826 176.215153 40.18701 177.084945 41.608885 Z M 182.308903 35.463051 L 181.38182 29.676592 L 185.28807 25.447425 L 188.147445 26.603676 C 188.147445 28.640134 187.47557 30.562009 186.053695 32.374509 Z M 182.308903 35.463051 " stroke="#000000" stroke-width="4.124978" stroke-opacity="1" stroke-miterlimit="4"/><g fill="#ffd200" fill-opacity="1"><g transform="translate(3.932393, 104.160524)"><g><path d="M 1.238281 0 C 1.566406 -0.125 1.898438 -0.246094 2.1875 -0.289062 C 3.464844 -0.617188 4.824219 -0.742188 6.144531 -0.785156 C 6.394531 -1.9375 6.394531 -3.875 6.640625 -5.609375 C 6.679688 -6.351562 7.136719 -12.992188 7.257812 -15.507812 C 8.371094 -14.0625 9.609375 -12.660156 10.804688 -11.257812 L 12.785156 -9.113281 C 12.992188 -9.113281 14.476562 -9.238281 14.972656 -9.28125 C 15.257812 -9.652344 16.992188 -11.710938 17.777344 -12.785156 L 19.054688 -14.515625 C 19.054688 -14.558594 19.054688 -14.558594 19.09375 -14.601562 C 19.632812 -10.023438 20.125 -5.484375 20.375 -0.90625 L 20.375 -0.617188 C 21.816406 -0.824219 23.300781 -0.988281 24.785156 -0.988281 C 24.703125 -2.351562 24.621094 -3.710938 24.496094 -5.074219 C 24.042969 -10.0625 23.261719 -17.15625 22.972656 -22.1875 C 22.808594 -23.425781 22.765625 -23.796875 22.683594 -24.167969 L 20.664062 -24.292969 C 19.878906 -24.292969 19.054688 -24.292969 18.269531 -24.25 C 16.414062 -22.066406 15.382812 -20.539062 13.570312 -18.722656 C 13.445312 -18.640625 13.363281 -18.519531 13.28125 -18.433594 C 12.910156 -18.722656 9.03125 -21.695312 7.710938 -23.300781 L 7.507812 -23.796875 L 7.507812 -23.960938 C 7.09375 -23.921875 6.722656 -23.878906 6.308594 -23.796875 C 5.113281 -23.671875 3.917969 -23.550781 2.722656 -23.507812 C 2.308594 -18.148438 1.691406 -10.640625 1.445312 -5.238281 C 1.320312 -3.503906 1.277344 -1.730469 1.238281 0 Z M 1.238281 0 "/></g></g></g><g fill="#ffd200" fill-opacity="1"><g transform="translate(29.953727, 104.160524)"><g><path d="M 3.917969 0 L 12.742188 -0.164062 L 16.003906 -3.589844 L 16.414062 -16.828125 L 14.1875 -19.425781 L 3.710938 -18.476562 L 1.320312 -15.464844 C 1.15625 -11.589844 1.238281 -7.300781 1.445312 -2.679688 Z M 11.753906 -6.019531 L 6.640625 -6.886719 L 6.847656 -14.144531 L 11.175781 -14.558594 Z M 11.753906 -6.019531 "/></g></g></g><g fill="#ffd200" fill-opacity="1"><g transform="translate(47.603697, 104.160524)"><g><path d="M 12.125 0 L 17.777344 -20.703125 L 13.28125 -20.703125 L 10.515625 -10.144531 L 6.394531 -21.40625 L 1.238281 -21.074219 L 5.734375 -0.289062 Z M 12.125 0 "/></g></g></g><g fill="#ffd200" fill-opacity="1"><g transform="translate(66.61453, 104.160524)"><g><path d="M 1.691406 -20.292969 L 6.558594 -21.324219 L 6.394531 -26.148438 L 1.320312 -24.703125 Z M 2.019531 0 L 6.722656 -0.867188 L 7.257812 -8.867188 L 6.515625 -18.972656 L 1.691406 -19.382812 L 1.238281 -12 Z M 2.019531 0 "/></g></g></g><g fill="#ffd200" fill-opacity="1"><g transform="translate(75.109604, 104.160524)"><g><path d="M 14.230469 -7.175781 L 7.339844 -4.992188 C 7.09375 -5.320312 6.886719 -5.773438 6.722656 -6.269531 C 8.539062 -6.929688 13.980469 -9.238281 15.753906 -10.722656 C 15.878906 -10.96875 16.25 -16.003906 15.753906 -16.992188 L 14.3125 -18.105469 C 12.785156 -18.890625 11.300781 -19.382812 9.855469 -19.714844 C 7.589844 -19.21875 5.691406 -18.3125 4.164062 -17.074219 C 2.515625 -14.972656 1.566406 -12.496094 1.238281 -9.691406 C 1.527344 -6.640625 2.019531 -3.960938 3.011719 -2.0625 C 4.867188 -0.90625 6.558594 -0.125 7.917969 0 C 7.917969 0 15.878906 -3.339844 16.25 -4.824219 Z M 11.300781 -13.484375 C 11.960938 -13.570312 12.621094 -13.445312 13.113281 -13.113281 C 11.21875 -11.835938 7.710938 -9.527344 6.351562 -8.824219 C 6.394531 -10.0625 6.722656 -11.300781 7.464844 -12.167969 C 7.464844 -12.167969 9.484375 -13.363281 11.300781 -13.484375 Z M 11.300781 -13.484375 "/></g></g></g><g fill="#ffd200" fill-opacity="1"><g transform="translate(92.594619, 104.160524)"><g><path d="M 7.050781 0 L 7.050781 -0.785156 C 7.382812 -2.96875 7.421875 -10.96875 7.589844 -10.96875 C 9.28125 -11.136719 13.445312 -11.507812 14.0625 -11.546875 C 14.105469 -10.105469 14.1875 -3.132812 14.1875 -2.472656 C 14.230469 -1.9375 14.230469 -1.402344 14.433594 -0.90625 L 14.558594 -0.699219 C 15.714844 -1.113281 16.949219 -1.277344 18.1875 -1.320312 L 19.382812 -1.402344 C 19.425781 -1.648438 19.425781 -1.9375 19.550781 -4.660156 C 19.632812 -6.1875 19.796875 -15.714844 19.796875 -17.980469 C 19.796875 -20.703125 19.714844 -25.445312 19.507812 -27.425781 C 18.847656 -27.386719 14.847656 -26.929688 12.949219 -26.601562 C 13.199219 -23.960938 13.402344 -21.199219 13.652344 -16.703125 L 13.734375 -16.003906 C 11.753906 -16.125 8.949219 -16.085938 7.628906 -16.003906 C 7.628906 -17.03125 7.710938 -22.3125 7.960938 -24.539062 L 7.960938 -24.621094 C 6.929688 -24.496094 5.609375 -25.035156 4.785156 -25.199219 L 1.238281 -25.199219 C 1.527344 -21.609375 1.9375 -7.792969 1.9375 -0.699219 C 3.671875 -0.617188 5.363281 -0.371094 7.050781 0 Z M 7.050781 0 "/></g></g></g><g fill="#ffd200" fill-opacity="1"><g transform="translate(113.626123, 104.160524)"><g><path d="M 13.363281 6.765625 L 17.898438 4.371094 L 17.816406 -12.332031 L 12.332031 -14.476562 C 9.652344 -7.710938 10.3125 -7.339844 8 -7.050781 C 6.144531 -9.074219 8.332031 -16.375 8.453125 -19.464844 L 2.929688 -20.457031 C 1.402344 -14.558594 0.699219 -8.785156 1.691406 -3.257812 L 5.445312 0.207031 L 10.847656 -1.359375 Z M 13.363281 6.765625 "/></g></g></g><g fill="#ffd200" fill-opacity="1"><g transform="translate(132.760666, 104.160524)"><g><path d="M 3.132812 -0.289062 C 5.15625 0.125 8.414062 -0.164062 9.28125 -0.414062 C 10.558594 -0.824219 14.023438 -5.363281 14.023438 -5.363281 C 15.257812 -9.527344 15.464844 -10.351562 14.683594 -15.136719 C 13.734375 -16.539062 12.414062 -17.488281 10.886719 -18.148438 C 9.402344 -17.734375 8.082031 -17.28125 6.804688 -16.289062 C 6.96875 -19.382812 6.804688 -22.847656 6.394531 -26.683594 L 2.761719 -27.550781 C 1.566406 -21.15625 1.074219 -14.023438 1.277344 -6.144531 C 1.855469 -3.21875 2.472656 -1.359375 3.132812 -0.289062 Z M 7.050781 -4.90625 L 6.351562 -9.238281 L 9.28125 -12.414062 L 11.425781 -11.546875 C 11.425781 -10.023438 10.929688 -8.578125 9.855469 -7.21875 Z M 7.050781 -4.90625 "/></g></g></g></svg>